<svg width="31" height="30" viewBox="0 0 31 30" fill="none" xmlns="http://www.w3.org/2000/svg">
<g clip-path="url(#clip0_52_112)">
<path d="M3.0625 3.75C1.50977 3.75 0.25 5.00977 0.25 6.5625C0.25 7.44727 0.666016 8.2793 1.375 8.8125L14.125 18.375C14.793 18.873 15.707 18.873 16.375 18.375L29.125 8.8125C29.834 8.2793 30.25 7.44727 30.25 6.5625C30.25 5.00977 28.9902 3.75 27.4375 3.75H3.0625ZM0.25 10.3125V22.5C0.25 24.5684 1.93164 26.25 4 26.25H26.5C28.5684 26.25 30.25 24.5684 30.25 22.5V10.3125L17.5 19.875C16.1641 20.877 14.3359 20.877 13 19.875L0.25 10.3125Z" fill="#184383"/>
</g>
<defs>
<clipPath id="clip0_52_112">
<rect width="30" height="30" fill="white" transform="translate(0.25)"/>
</clipPath>
</defs>
</svg>
