<svg width="182" height="183" viewBox="0 0 182 183" fill="none" xmlns="http://www.w3.org/2000/svg">
<mask id="mask0_99_1503" style="mask-type:luminance" maskUnits="userSpaceOnUse" x="18" y="67" width="11" height="11">
<path d="M24.0471 70.5093C24.0815 70.5093 24.116 70.5322 24.093 70.5897L23.4267 72.6807C23.4152 72.7267 23.3692 72.7267 23.3347 72.7037L20.8646 70.762C20.8186 70.739 20.7726 70.6931 20.7841 70.6586C20.7956 70.6242 20.8531 70.6356 20.899 70.6356L24.0471 70.5093ZM28.6542 67.7863C28.6083 67.9242 28.5508 68.085 28.4589 68.2459C28.3211 68.4642 28.0683 68.7514 26.8964 68.8548C24.9317 69.0386 19.7156 69.3833 18.9918 69.4523C18.6931 69.4867 18.5667 69.5212 18.5323 69.6246C18.4978 69.7395 18.6012 69.8429 18.8884 70.0842L25.1385 75.2083C25.6326 75.622 25.9543 75.9551 25.8509 76.5066C25.8279 76.5985 25.7934 76.7594 25.759 76.8628C25.7245 76.9547 25.736 77.0122 25.8049 77.0236C25.8968 77.0581 25.9428 76.9892 25.9887 76.8398C26.1726 76.2424 26.3449 75.6105 26.3794 75.4841C26.4943 75.1279 26.6781 74.6569 26.793 74.2892C26.8275 74.1628 26.8275 74.0939 26.7355 74.0594C26.6666 74.0364 26.6321 74.0594 26.5862 74.1973L26.5287 74.3696C26.4138 74.7258 26.2415 74.7832 26.0347 74.7143C25.8968 74.6684 25.6441 74.5305 25.3913 74.3237L23.9552 73.1977C23.8977 73.1518 23.8747 73.1288 23.8977 73.0714L24.702 70.5322C24.7249 70.4748 24.7594 70.4518 24.8168 70.4403L27.5168 70.291C27.6662 70.2795 27.7466 70.3944 27.7466 70.4748C27.7236 70.5897 27.7351 70.6471 27.804 70.6701C27.8845 70.6931 27.9304 70.5552 27.9994 70.3599C28.3096 69.4523 28.5738 68.625 28.7117 68.2114C28.8496 67.7863 28.8496 67.6829 28.7576 67.6484C28.7462 67.6484 28.7347 67.637 28.7232 67.637C28.7002 67.6714 28.6772 67.7174 28.6542 67.7863Z" fill="white"/>
</mask>
<g mask="url(#mask0_99_1503)">
<path d="M29.0103 77.0695L28.8839 67.522L18.3828 67.6713L18.5092 77.2074L29.0103 77.0695Z" fill="url(#paint0_radial_99_1503)"/>
</g>
<mask id="mask1_99_1503" style="mask-type:luminance" maskUnits="userSpaceOnUse" x="22" y="52" width="11" height="12">
<path d="M26.5057 52.7126C26.2874 53.1147 25.9542 53.7926 25.8852 53.9189C25.8738 53.9304 25.4831 54.5738 25.1959 55.1023C25.1155 55.2517 25.0925 55.3321 25.1729 55.3781C25.2418 55.4125 25.2993 55.3666 25.3682 55.2517C25.4257 55.1368 25.5406 54.9644 25.6095 54.8955C25.8737 54.5853 26.0806 54.5968 26.4482 54.7691C26.7929 54.93 27.0916 55.0908 28.6771 55.964L29.9869 56.6763C31.0669 57.2623 31.9975 57.8138 32.2503 58.6984C32.4456 59.3418 32.2847 59.9967 32.032 60.4563C31.8366 60.8125 31.5264 61.272 30.883 61.5363C30.1822 61.8235 29.378 61.7775 27.8614 60.9503L26.3908 60.1461C24.7938 59.2729 24.5065 59.1121 24.1848 58.9167C23.8287 58.6984 23.6908 58.5146 23.7942 58.2044C23.8402 58.0665 23.8631 57.9976 23.9321 57.8827C23.9895 57.7793 24.001 57.6989 23.9321 57.6644C23.8631 57.6299 23.7942 57.6874 23.7138 57.8482C23.507 58.2274 23.1853 58.9053 23.0474 59.158C22.8751 59.4682 22.4844 60.1231 22.1857 60.6746C22.0938 60.8354 22.0823 60.9159 22.1512 60.9618C22.2202 60.9963 22.2776 60.9503 22.3466 60.8354C22.427 60.6861 22.5304 60.5137 22.5993 60.4448C22.8636 60.1346 23.0704 60.1461 23.438 60.3184C23.7827 60.4793 24.0814 60.6401 25.6669 61.5133L27.195 62.352C28.7116 63.1792 29.7111 63.2022 30.4809 62.938C31.5954 62.5473 32.1698 61.5593 32.4686 61.0078C32.8362 60.3299 33.1349 59.5027 32.9051 58.4112C32.6294 57.1244 31.4575 56.3317 30.2971 55.6998L29.1712 55.0908C27.5742 54.2177 27.2869 54.0568 26.9652 53.8615C26.6091 53.6432 26.4712 53.4594 26.5746 53.1492C26.6205 53.0113 26.6435 52.9424 26.7125 52.8275C26.7814 52.7011 26.7929 52.6321 26.724 52.5862C26.7125 52.5747 26.701 52.5747 26.678 52.5747C26.6205 52.5287 26.5746 52.5977 26.5057 52.7126Z" fill="white"/>
</mask>
<g mask="url(#mask1_99_1503)">
<path d="M33.2844 63.1792L33.1466 52.3794L21.9331 52.5288L22.071 63.3286L33.2844 63.1792Z" fill="url(#paint1_radial_99_1503)"/>
</g>
<mask id="mask2_99_1503" style="mask-type:luminance" maskUnits="userSpaceOnUse" x="29" y="41" width="12" height="11">
<path d="M34.755 41.8091C34.7205 41.8436 34.6861 41.9355 34.5942 42.0964C34.5022 42.2457 34.3529 42.4755 34.1116 42.7742L31.1014 46.4163C30.8487 46.715 30.5385 47.0597 30.2972 47.301C30.0904 47.5193 29.918 47.5308 29.8606 47.6112C29.8146 47.6686 29.8491 47.7376 29.941 47.864C29.9985 47.9444 30.6878 48.8061 30.8372 48.9324C30.9406 49.0129 30.998 49.0358 31.0555 48.9669C31.1014 48.9095 31.0899 48.852 31.0325 48.7716C30.9751 48.6912 30.9061 48.5533 30.8372 48.3465C30.7453 48.0363 30.8831 47.7835 31.3082 47.232L32.3997 45.8304L36.1797 48.9554C37.0299 49.6563 37.7537 50.2537 38.0984 50.6214C38.3396 50.8741 38.5005 51.0924 38.3856 51.3107C38.3396 51.4026 38.2592 51.529 38.1443 51.6669C38.0524 51.7818 38.0524 51.8392 38.0984 51.8737C38.1673 51.9311 38.2477 51.8852 38.3396 51.7703C38.6498 51.4026 39.0979 50.8052 39.2703 50.5869C39.4885 50.3341 39.9941 49.7712 40.4881 49.1622C40.5685 49.0588 40.603 48.9669 40.5456 48.9095C40.4996 48.875 40.4307 48.898 40.3502 48.9899C40.2354 49.1278 40.0515 49.3116 39.9251 49.4265C39.6609 49.6678 39.4081 49.5643 39.1324 49.3805C38.6958 49.1048 37.972 48.4959 37.1218 47.795L33.3418 44.67L34.3299 43.5325C35.0307 42.7283 35.4903 42.6938 35.7431 42.8661L35.858 42.9466C36.0073 43.05 36.0648 43.073 36.1222 42.9925C36.1682 42.9351 36.1337 42.8776 36.0418 42.7857C35.8005 42.5904 35.1916 42.0389 34.9963 41.8781C34.9044 41.7977 34.8469 41.7632 34.801 41.7632C34.7895 41.7747 34.7665 41.7862 34.755 41.8091Z" fill="white"/>
</mask>
<g mask="url(#mask2_99_1503)">
<path d="M40.7523 51.9311L40.6145 41.6252L29.6768 41.7746L29.8146 52.0689L40.7523 51.9311Z" fill="url(#paint2_radial_99_1503)"/>
</g>
<mask id="mask3_99_1503" style="mask-type:luminance" maskUnits="userSpaceOnUse" x="39" y="31" width="14" height="14">
<path d="M46.5884 31.446C46.2208 31.7332 45.6693 32.2387 45.4395 32.4111C45.1867 32.6179 44.5778 33.0544 44.0838 33.4681C43.9574 33.5715 43.8999 33.6519 43.9574 33.7093C44.0148 33.7783 44.0838 33.7438 44.1872 33.6634C44.3136 33.56 44.4859 33.4451 44.5663 33.3991C44.9225 33.2153 45.1178 33.3072 45.3935 33.6059C45.6463 33.8932 45.8646 34.1459 47.002 35.5591L47.1629 35.7544C47.1973 35.8004 47.1859 35.8463 47.1629 35.8693L43.6012 38.7301C43.5782 38.7531 43.5323 38.7531 43.4978 38.7071L43.337 38.5118C42.1995 37.0986 41.9927 36.8459 41.763 36.5242C41.5217 36.1795 41.4642 35.9612 41.6825 35.7199C41.7744 35.6165 41.8549 35.5361 41.9353 35.4787C42.0502 35.3868 42.0846 35.3293 42.0387 35.2604C41.9812 35.1914 41.9123 35.2259 41.7744 35.3293C41.4183 35.6165 40.8553 36.1221 40.6255 36.2944C40.3728 36.5012 39.7638 36.9378 39.2698 37.3514C39.1434 37.4548 39.086 37.5352 39.1434 37.5927C39.2009 37.6616 39.2698 37.6271 39.3732 37.5467C39.4996 37.4433 39.6719 37.3284 39.7638 37.2825C40.12 37.0986 40.3153 37.1906 40.5911 37.4893C40.8438 37.7765 41.0621 38.0293 42.1995 39.4424L43.5208 41.0739C44.2101 41.9241 44.7961 42.6594 45.0718 43.0845C45.2557 43.3832 45.3706 43.6245 45.2097 43.8083C45.1408 43.9003 45.0489 44.0037 44.911 44.1185C44.7961 44.2105 44.7846 44.2679 44.8191 44.3139C44.865 44.3828 44.9569 44.3598 45.0833 44.2564C45.451 43.9577 46.014 43.4522 46.2322 43.2798C46.4965 43.073 47.0939 42.625 47.7029 42.1424C47.8178 42.0505 47.8637 41.9701 47.8178 41.9011C47.7833 41.8552 47.7144 41.8667 47.611 41.9471C47.4731 42.062 47.2548 42.2113 47.1054 42.2918C46.7952 42.4756 46.5769 42.3147 46.3357 42.085C45.968 41.7173 45.3706 40.9935 44.6812 40.1318L44.0263 39.3161C43.9919 39.2701 44.0148 39.2356 44.0378 39.2127L47.588 36.3518C47.611 36.3289 47.6569 36.3289 47.6914 36.3633L48.3463 37.1791C49.0356 38.0293 49.6216 38.7646 49.8973 39.1897C50.0811 39.4884 50.196 39.7297 50.0352 39.9135C49.9662 39.9939 49.8743 40.1088 49.7365 40.2237C49.6216 40.3156 49.6101 40.3731 49.6445 40.419C49.6905 40.488 49.7824 40.465 49.9088 40.3501C50.2764 40.0514 50.8279 39.5573 51.0462 39.385C51.3105 39.1782 51.9194 38.7301 52.5168 38.2476C52.6317 38.1557 52.6777 38.0637 52.6317 38.0063C52.5973 37.9603 52.5283 37.9718 52.4249 38.0523C52.2871 38.1671 52.0688 38.3165 51.9194 38.3969C51.6092 38.5808 51.3909 38.4314 51.1496 38.1901C50.782 37.8225 50.1845 37.0986 49.5067 36.237L48.1854 34.6055C47.048 33.1923 46.8412 32.9396 46.6114 32.6179C46.3701 32.2732 46.3127 32.0664 46.531 31.8136C46.6229 31.7102 46.7033 31.6298 46.7837 31.5723C46.8986 31.4804 46.9331 31.423 46.8871 31.354C46.8642 31.3311 46.8527 31.3196 46.8182 31.3196C46.7378 31.3311 46.6803 31.377 46.5884 31.446Z" fill="white"/>
</mask>
<g mask="url(#mask3_99_1503)">
<path d="M52.8385 44.3942L52.6547 31.1587L38.9136 31.3425L39.0859 44.5781L52.8385 44.3942Z" fill="url(#paint3_radial_99_1503)"/>
</g>
<mask id="mask4_99_1503" style="mask-type:luminance" maskUnits="userSpaceOnUse" x="52" y="25" width="10" height="11">
<path d="M57.3772 25.0693C57.3198 25.0923 57.2738 25.1613 57.2279 25.1957C57.1589 25.2647 56.9981 25.3681 56.8028 25.4944C56.6074 25.6093 54.5049 26.7123 54.1602 26.8961C54.0109 26.9766 53.7696 27.0914 53.4824 27.2293C53.2181 27.3672 52.9079 27.5166 52.6207 27.6659C52.4598 27.7463 52.4024 27.8038 52.4369 27.8842C52.4713 27.9531 52.5518 27.9416 52.6666 27.8842C52.816 27.8038 52.9998 27.7234 53.0918 27.7004C53.4824 27.5855 53.6547 27.7119 53.8615 28.068C54.0568 28.4012 54.2177 28.6884 55.0564 30.2969L56.033 32.1582C56.5385 33.1348 56.9866 33.962 57.1589 34.4331C57.2738 34.7662 57.3428 35.019 57.1589 35.1798C57.0785 35.2488 56.9636 35.3407 56.8028 35.4211C56.6764 35.4901 56.6534 35.536 56.6764 35.5935C56.7108 35.6624 56.8028 35.6624 56.9406 35.5935C57.1474 35.4786 57.4117 35.3177 57.6645 35.1913C57.9172 35.0535 58.147 34.9271 58.2619 34.8696C58.5836 34.7088 58.9168 34.5365 59.3763 34.3182C59.8359 34.0884 60.4334 33.8011 61.2261 33.3875C61.6282 33.1807 61.7201 33.1233 61.6512 32.8131C61.5938 32.5718 61.295 31.8135 61.1687 31.5722C61.1112 31.4688 61.0653 31.3769 60.9848 31.4229C60.9044 31.4573 60.9159 31.5148 60.9504 31.6412C61.0997 32.1122 61.0997 32.3995 60.8814 32.6752C60.6746 32.9509 60.2265 33.1807 59.9508 33.3301C58.8708 33.8931 58.6181 33.8241 58.2159 33.1118C58.0436 32.8131 57.5381 31.8365 57.3542 31.4688L56.9177 30.6301C56.8832 30.5727 56.8717 30.5152 56.9291 30.4923C57.1819 30.3544 58.2389 29.8144 58.4457 29.734C58.8593 29.5731 59.0891 29.6535 59.25 29.8374C59.3534 29.9523 59.4223 30.0901 59.4912 30.1935C59.5142 30.251 59.5602 30.274 59.6406 30.2395C59.7325 30.1935 59.6751 30.0786 59.6291 29.9867C59.5946 29.9178 59.3993 29.4697 59.2959 29.2514C59.0546 28.6884 59.0087 28.4931 58.9742 28.4357C58.9398 28.3668 58.8938 28.3668 58.8593 28.3897C58.8019 28.4127 58.7904 28.4931 58.7674 28.6195C58.7329 28.7804 58.5836 28.8953 58.3423 29.0446C58.1125 29.194 56.8947 29.8259 56.6649 29.9523C56.6074 29.9867 56.573 29.9523 56.527 29.8718L55.1253 27.1949C55.0909 27.1259 55.0909 27.08 55.1483 27.0455C55.3551 26.9306 56.4811 26.3676 56.6764 26.2987C57.2394 26.0804 57.4117 26.1493 57.584 26.3102C57.6989 26.4136 57.8138 26.5859 57.8483 26.6549C57.8942 26.7468 57.9517 26.7927 58.0206 26.7583C58.0896 26.7238 58.0781 26.6434 58.0666 26.5859C58.0206 26.4481 57.8023 25.977 57.7564 25.8621C57.5266 25.3566 57.5151 25.2072 57.4806 25.1268C57.4576 25.0808 57.4347 25.0579 57.4002 25.0579C57.4002 25.0694 57.3887 25.0693 57.3772 25.0693Z" fill="white"/>
</mask>
<g mask="url(#mask4_99_1503)">
<path d="M61.8923 35.6738L61.743 24.9429L52.2759 25.0693L52.4138 35.8002L61.8923 35.6738Z" fill="url(#paint4_radial_99_1503)"/>
</g>
<mask id="mask5_99_1503" style="mask-type:luminance" maskUnits="userSpaceOnUse" x="64" y="19" width="11" height="13">
<path d="M72.8299 19.6465C72.2669 19.8074 71.8418 19.9682 71.7154 20.0142C71.4742 20.0831 70.9112 20.2095 70.3252 20.3933C70.1529 20.4508 70.0265 20.4967 70.061 20.5886C70.084 20.6576 70.1414 20.6806 70.2793 20.6346C70.4401 20.5886 70.7159 20.5082 70.9112 20.5197C71.2214 20.5542 71.3822 20.738 71.612 21.4388L73.255 26.54L73.1975 26.563C72.9448 26.4366 70.9112 25.2533 69.9001 24.7018C67.7402 23.5414 65.4423 22.1856 65.2585 22.0822C65.0057 21.9329 64.8564 21.818 64.73 21.8525C64.6151 21.8869 64.6266 22.0593 64.6955 22.289L66.6027 29.0907C66.89 30.0902 66.9359 30.4349 66.6717 30.6187C66.5223 30.7106 66.327 30.7796 66.1776 30.8255C66.0627 30.86 66.0053 30.9059 66.0168 30.9749C66.0513 31.0783 66.1547 31.0553 66.304 31.0093C66.9015 30.837 67.43 30.6417 67.5334 30.6072C67.7517 30.5383 68.2227 30.4349 68.958 30.2166C69.1189 30.1706 69.2108 30.1132 69.1878 30.0213C69.1648 29.9523 69.0959 29.9523 68.9695 29.9868C68.7857 30.0443 68.5674 30.0902 68.3491 30.0787C68.0963 30.0672 67.8551 29.8145 67.5678 28.9298L66.0168 24.1618L66.0513 24.1503C66.327 24.3111 68.0159 25.3567 69.6359 26.2298C71.1754 27.0571 73.0826 28.1141 74.0133 28.5966C74.1741 28.6885 74.3465 28.769 74.4728 28.7345C74.5762 28.7 74.5877 28.5851 74.5188 28.3324L72.4967 21.0712C72.3129 20.4278 72.3358 20.1635 72.6346 19.9682C72.7609 19.8878 72.8529 19.8648 72.9678 19.8304C73.1056 19.7844 73.1631 19.7384 73.1401 19.6695C73.1286 19.6235 73.0941 19.6121 73.0367 19.6121C72.9678 19.6121 72.8988 19.6236 72.8299 19.6465Z" fill="white"/>
</mask>
<g mask="url(#mask5_99_1503)">
<path d="M74.7257 31.0782L74.5763 19.4741L64.4429 19.612L64.5922 31.2161L74.7257 31.0782Z" fill="url(#paint5_radial_99_1503)"/>
</g>
<mask id="mask6_99_1503" style="mask-type:luminance" maskUnits="userSpaceOnUse" x="78" y="17" width="9" height="11">
<path d="M86.7664 17.7854C86.7205 17.7854 86.6285 17.8199 86.4562 17.8773C86.2839 17.9118 86.0196 17.9807 85.6405 18.0152L80.9299 18.4288C80.5393 18.4633 80.0797 18.4748 79.735 18.4748C79.5857 18.4748 79.4822 18.4518 79.4018 18.4288C79.3214 18.4058 79.2525 18.3713 79.2065 18.3828C79.1376 18.3943 79.1031 18.4633 79.0801 18.6241C79.0686 18.716 78.9308 19.819 78.9538 20.0143C78.9652 20.1407 78.9997 20.1981 79.0801 20.1981C79.1491 20.1866 79.1835 20.1407 79.195 20.0373C79.2065 19.9454 79.2525 19.796 79.3559 19.6007C79.5052 19.325 79.7925 19.2445 80.4818 19.1526L82.2512 18.9458L82.6762 23.8172C82.7682 24.9087 82.8601 25.8508 82.8371 26.3563C82.8371 26.701 82.7797 26.9768 82.5499 27.0457C82.4465 27.0802 82.3086 27.1146 82.1248 27.1261C81.9869 27.1376 81.9409 27.1836 81.9409 27.241C81.9524 27.3214 82.0329 27.3559 82.1937 27.3444C82.6648 27.2985 83.4116 27.1951 83.6873 27.1721C84.0205 27.1376 84.7788 27.1146 85.56 27.0457C85.6864 27.0342 85.7783 26.9882 85.7783 26.9078C85.7783 26.8504 85.7094 26.8159 85.583 26.8274C85.4107 26.8389 85.1464 26.8389 84.9741 26.8389C84.6179 26.8274 84.5145 26.5631 84.4571 26.2415C84.3537 25.7359 84.2732 24.7938 84.1698 23.7023L83.7333 18.8309L85.2383 18.739C86.2954 18.6701 86.6515 18.9688 86.6975 19.279L86.7204 19.4054C86.7434 19.5777 86.7779 19.6352 86.8698 19.6352C86.9387 19.6237 86.9617 19.5547 86.9617 19.4398C86.9387 19.1296 86.9043 18.3024 86.8813 18.0611C86.8698 17.8888 86.8468 17.8199 86.7779 17.8199C86.7779 17.7854 86.7779 17.7854 86.7664 17.7854Z" fill="white"/>
</mask>
<g mask="url(#mask6_99_1503)">
<path d="M87.0996 27.3443L86.9733 17.6819L78.8159 17.7853L78.9423 27.4477L87.0996 27.3443Z" fill="url(#paint6_radial_99_1503)"/>
</g>
<mask id="mask7_99_1503" style="mask-type:luminance" maskUnits="userSpaceOnUse" x="92" y="18" width="5" height="10">
<path d="M92.6716 18.0726C92.6601 18.1645 92.7406 18.199 92.8554 18.199C92.9933 18.2105 93.1542 18.2334 93.2806 18.2794C93.5333 18.3598 93.6482 18.5666 93.6367 18.9688C93.6367 19.3479 93.6137 19.6811 93.4874 21.4964L93.3495 23.5874C93.2691 24.7363 93.2116 25.6784 93.1197 26.184C93.0623 26.5286 92.9703 26.724 92.7291 26.7584C92.6257 26.7699 92.4763 26.7929 92.2925 26.7814C92.1546 26.7699 92.0972 26.8044 92.0972 26.8618C92.0857 26.9423 92.1776 26.9882 92.3269 26.9997C92.8095 27.0342 93.5563 27.0457 93.832 27.0686C94.1537 27.0916 94.9005 27.172 95.6818 27.2295C95.8082 27.241 95.9116 27.2065 95.9116 27.1261C95.9116 27.0686 95.8541 27.0227 95.7277 27.0227C95.5439 27.0112 95.2912 26.9652 95.1188 26.9308C94.7627 26.8618 94.6937 26.6435 94.6822 26.3218C94.6707 25.8048 94.7282 24.8627 94.8086 23.7138L94.9465 21.6228C95.0729 19.819 95.0958 19.4743 95.1418 19.0951C95.1992 18.6815 95.3026 18.4862 95.6243 18.4403C95.7737 18.4288 95.8656 18.4173 95.9805 18.4288C96.0954 18.4403 96.1758 18.4173 96.1758 18.3254C96.1758 18.2564 96.0839 18.222 95.9346 18.2105C95.4865 18.1875 94.7741 18.176 94.4754 18.153C94.1307 18.13 93.3839 18.0496 92.9244 18.0152C92.8784 18.0152 92.844 18.0152 92.8095 18.0152C92.7291 17.9922 92.6716 18.0152 92.6716 18.0726Z" fill="white"/>
</mask>
<g mask="url(#mask7_99_1503)">
<path d="M96.3366 27.2296L96.2102 17.9348L91.9707 17.9923L92.0971 27.287L96.3366 27.2296Z" fill="url(#paint7_radial_99_1503)"/>
</g>
<mask id="mask8_99_1503" style="mask-type:luminance" maskUnits="userSpaceOnUse" x="101" y="19" width="10" height="11">
<path d="M103.586 20.3359C102.231 21.0942 101.656 22.4155 101.472 23.1967C101.208 24.3227 101.197 25.7014 102.104 26.9652C102.943 28.1371 104.195 28.792 105.792 29.1711C106.539 29.3435 107.435 29.4698 107.952 29.4009C108.171 29.3664 108.228 29.3205 108.332 29.1367C108.538 28.769 108.917 27.7924 108.952 27.6546C108.975 27.5626 108.963 27.4707 108.883 27.4592C108.791 27.4363 108.757 27.4822 108.676 27.6546C108.584 27.8499 108.354 28.1486 108.102 28.3324C107.516 28.7575 106.861 28.7231 105.827 28.4818C104.264 28.1141 102.484 26.2529 103.138 23.484C103.403 22.358 103.885 21.301 104.919 20.7266C105.54 20.3819 106.263 20.2785 107.275 20.5198C108.343 20.7725 109.17 21.301 109.469 21.7951C109.687 22.1627 109.745 22.6108 109.664 22.967C109.63 23.1278 109.63 23.2312 109.722 23.2542C109.825 23.2772 109.871 23.1967 109.929 23.0244C110.009 22.7946 110.147 22.1512 110.262 21.7721C110.377 21.37 110.446 21.2436 110.469 21.1517C110.48 21.0827 110.457 21.0138 110.331 20.9678C109.986 20.8529 109.641 20.6576 109.216 20.4968C108.699 20.3015 108.274 20.1521 107.562 19.9798C106.941 19.8304 106.39 19.7615 105.884 19.7615C104.977 19.7615 104.241 19.9798 103.586 20.3359Z" fill="white"/>
</mask>
<g mask="url(#mask8_99_1503)">
<path d="M110.618 29.4813L110.492 19.635L101.082 19.7614L101.208 29.6076L110.618 29.4813Z" fill="url(#paint8_radial_99_1503)"/>
</g>
<mask id="mask9_99_1503" style="mask-type:luminance" maskUnits="userSpaceOnUse" x="120" y="27" width="11" height="11">
<path d="M124.279 27.8268C122.751 28.1485 121.82 29.2284 121.406 29.9293C120.82 30.9288 120.395 32.2386 120.878 33.7092C121.326 35.0764 122.326 36.0875 123.739 36.9262C124.394 37.3168 125.221 37.7075 125.726 37.7879C125.945 37.8224 126.014 37.7879 126.174 37.65C126.485 37.3628 127.139 36.5471 127.208 36.4207C127.254 36.3403 127.277 36.2598 127.208 36.2139C127.128 36.1679 127.082 36.1909 126.956 36.3403C126.806 36.5011 126.496 36.7194 126.209 36.8113C125.52 37.0411 124.899 36.8113 123.991 36.2713C122.613 35.4556 121.475 33.1348 122.934 30.6991C123.52 29.6995 124.302 28.8493 125.462 28.5965C126.163 28.4587 126.875 28.5736 127.771 29.1021C128.714 29.665 129.357 30.4118 129.472 30.9748C129.564 31.3884 129.483 31.8365 129.311 32.1582C129.219 32.3075 129.196 32.3995 129.276 32.4454C129.368 32.5029 129.437 32.4339 129.541 32.2846C129.679 32.0893 130.012 31.5263 130.23 31.1931C130.46 30.8484 130.563 30.745 130.621 30.6646C130.655 30.6071 130.644 30.5267 130.54 30.4463C130.253 30.228 129.977 29.9408 129.621 29.665C129.185 29.3204 128.828 29.0561 128.197 28.677C127.071 28.0106 126.117 27.7348 125.232 27.7348C124.888 27.7234 124.577 27.7578 124.279 27.8268Z" fill="white"/>
</mask>
<g mask="url(#mask9_99_1503)">
<path d="M130.77 37.8108L130.632 27.5854L120.269 27.7233L120.407 37.9487L130.77 37.8108Z" fill="url(#paint9_radial_99_1503)"/>
</g>
<mask id="mask10_99_1503" style="mask-type:luminance" maskUnits="userSpaceOnUse" x="129" y="34" width="11" height="14">
<path d="M136.113 40.465C135.848 40.4421 135.699 40.3731 135.343 40.0514C135.125 39.8561 134.872 39.5919 134.745 39.3621C134.711 39.2817 134.722 39.2242 134.803 39.1323L137.216 36.4208C137.273 36.3519 137.33 36.3289 137.411 36.3634C137.526 36.4208 137.698 36.5472 137.916 36.7425C138.445 37.2136 138.962 38.3166 137.836 39.5919C137.239 40.2582 136.676 40.465 136.239 40.465C136.193 40.4765 136.147 40.4765 136.113 40.465ZM135.699 34.1805C135.642 34.2379 135.687 34.3068 135.779 34.3987C135.906 34.5136 136.044 34.6515 136.101 34.7319C136.342 35.0536 136.285 35.2604 136.032 35.5821C135.802 35.8809 135.573 36.1336 134.366 37.4893L132.976 39.0634C132.252 39.8791 131.62 40.5914 131.241 40.9246C130.977 41.1544 130.759 41.3038 130.552 41.1889C130.448 41.1314 130.334 41.0625 130.196 40.9361C130.092 40.8442 130.035 40.8327 129.989 40.8787C129.931 40.9361 129.966 41.028 130.092 41.1314C130.448 41.4531 131.034 41.9242 131.207 42.0735C131.345 42.1884 131.976 42.8088 132.493 43.2684C132.608 43.3718 132.7 43.3948 132.746 43.3373C132.781 43.2914 132.769 43.2339 132.7 43.165C132.597 43.0731 132.413 42.8778 132.298 42.7399C132.057 42.4642 132.183 42.2229 132.39 41.9357C132.677 41.522 133.309 40.8097 134.045 39.9825L134.159 39.8561C134.205 39.7987 134.251 39.8102 134.297 39.8446L135.056 40.557C135.125 40.6144 135.159 40.6718 135.159 40.7638C135.159 41.005 135.033 41.9701 134.952 42.7744C134.837 43.9003 134.814 44.6241 135.01 45.1756C135.136 45.5088 135.308 45.7501 135.814 46.1982L136.664 46.945C136.767 47.0369 136.848 47.0828 136.917 47.0024C136.951 46.9564 136.94 46.899 136.871 46.8416C136.802 46.7726 136.722 46.6922 136.641 46.5888C136.526 46.4394 136.216 46.0603 136.182 45.0952C136.147 44.0727 136.239 42.7284 136.331 41.028C137.882 41.0969 138.698 40.7293 139.284 40.0744C139.812 39.477 139.858 38.7072 139.766 38.3166C139.582 37.5583 139.031 36.9723 138.468 36.4783C138.192 36.237 137.491 35.6626 137.181 35.3983C136.997 35.226 136.457 34.709 135.986 34.2839C135.894 34.2034 135.825 34.1575 135.779 34.1575C135.733 34.1575 135.722 34.169 135.699 34.1805Z" fill="white"/>
</mask>
<g mask="url(#mask10_99_1503)">
<path d="M140.03 47.0828L139.847 34.0195L129.771 34.1574L129.943 47.2206L140.03 47.0828Z" fill="url(#paint10_radial_99_1503)"/>
</g>
<mask id="mask11_99_1503" style="mask-type:luminance" maskUnits="userSpaceOnUse" x="137" y="46" width="12" height="10">
<path d="M144.075 50.2538L142.719 48.5189C142.696 48.4844 142.707 48.45 142.753 48.427L145.741 47.4849C145.786 47.4619 145.844 47.4504 145.867 47.4734C145.89 47.5078 145.844 47.5538 145.821 47.5883L144.166 50.2538C144.155 50.2652 144.144 50.2767 144.121 50.2767C144.109 50.2882 144.086 50.2767 144.075 50.2538ZM147.406 46.2325L139.651 48.4959C139.031 48.6797 138.571 48.7487 138.181 48.358C138.112 48.2891 137.997 48.1627 137.939 48.0823C137.882 48.0019 137.836 47.9789 137.778 48.0249C137.698 48.0823 137.733 48.1512 137.824 48.2776C138.204 48.7602 138.64 49.2657 138.721 49.3691C138.95 49.6563 139.238 50.0814 139.467 50.3916C139.548 50.495 139.617 50.541 139.686 50.4721C139.743 50.4261 139.743 50.3801 139.651 50.2767L139.536 50.1389C139.307 49.8516 139.364 49.6678 139.536 49.5299C139.651 49.438 139.915 49.3116 140.226 49.2197L141.972 48.6797C142.041 48.6568 142.075 48.6568 142.11 48.7027L143.753 50.8052C143.787 50.8512 143.787 50.8972 143.764 50.9546L142.363 53.2639C142.282 53.4018 142.144 53.4018 142.075 53.3444C141.995 53.2524 141.949 53.2295 141.892 53.2754C141.823 53.3329 141.915 53.4363 142.041 53.6201C142.615 54.3899 143.144 55.0792 143.408 55.4124C143.684 55.7571 143.764 55.826 143.845 55.7686C143.914 55.7111 143.879 55.6652 143.822 55.5847C143.73 55.4699 143.626 55.3205 143.546 55.1596C143.443 54.9299 143.351 54.5507 143.925 53.5282C144.879 51.8048 147.544 47.301 147.877 46.6691C148.015 46.4049 148.061 46.2785 147.992 46.1981C147.958 46.1521 147.912 46.1406 147.843 46.1406C147.751 46.1521 147.613 46.1751 147.406 46.2325Z" fill="white"/>
</mask>
<g mask="url(#mask11_99_1503)">
<path d="M148.188 55.826L148.05 46.0027L137.56 46.152L137.698 55.9638L148.188 55.826Z" fill="url(#paint11_radial_99_1503)"/>
</g>
<mask id="mask12_99_1503" style="mask-type:luminance" maskUnits="userSpaceOnUse" x="145" y="54" width="12" height="9">
<path d="M153.22 54.4473C153.162 54.4818 153.174 54.5622 153.231 54.6656C153.312 54.815 153.392 54.9988 153.415 55.0907C153.53 55.4814 153.404 55.6537 153.059 55.8605C152.737 56.0673 152.439 56.2167 150.842 57.0784L148.992 58.0779C147.981 58.6179 147.2 59.043 146.728 59.2268C146.407 59.3532 146.143 59.4222 145.982 59.2383C145.913 59.1579 145.821 59.043 145.74 58.8822C145.683 58.7673 145.626 58.7443 145.568 58.7673C145.488 58.8132 145.499 58.8937 145.58 59.043C145.798 59.4451 146.177 60.0885 146.326 60.3643C146.476 60.64 146.797 61.3179 147.154 61.9728C147.234 62.1336 147.314 62.1911 147.383 62.1566C147.441 62.1221 147.441 62.0647 147.372 61.9268C147.291 61.7774 147.188 61.5362 147.131 61.3753C147.004 61.0421 147.2 60.8468 147.487 60.6515C147.9 60.3643 148.693 59.9392 149.693 59.3992L150.543 58.9396C150.612 58.9051 150.646 58.9052 150.681 58.9626C150.773 59.1464 151.382 60.2609 151.485 60.5366C151.623 60.8813 151.519 61.1455 151.393 61.2719C151.29 61.3868 151.175 61.4672 151.106 61.5132C151.037 61.5477 150.968 61.6166 151.002 61.674C151.06 61.7774 151.163 61.72 151.255 61.674C151.336 61.6396 151.818 61.3983 152.048 61.3064C152.393 61.157 152.68 61.0766 152.749 61.0421C152.818 61.0077 152.829 60.9732 152.806 60.9272C152.772 60.8698 152.714 60.8698 152.634 60.8468C152.439 60.8124 152.324 60.686 152.197 60.5021C152.105 60.3643 152.025 60.2149 151.933 60.0311L151.198 58.6869C151.163 58.6179 151.186 58.5949 151.255 58.5605L153.886 57.1473C154.001 57.0899 154.047 57.1013 154.082 57.1588L154.92 58.7903C155.127 59.1924 155.081 59.5026 154.978 59.6519C154.863 59.7898 154.702 59.8817 154.61 59.9277C154.495 59.9966 154.461 60.0541 154.495 60.123C154.53 60.1919 154.61 60.1805 154.702 60.146C154.84 60.1 155.472 59.7898 155.587 59.7439C155.874 59.629 156.035 59.6175 156.104 59.5715C156.161 59.5485 156.184 59.4911 156.161 59.4451C156.138 59.3877 156.058 59.3647 156 59.3073C155.908 59.2154 155.851 59.089 155.725 58.8937C155.587 58.6524 154.438 56.5269 154.219 56.1248C154.139 55.9754 154.024 55.7341 153.886 55.4469C153.737 55.1712 153.588 54.861 153.438 54.5852C153.369 54.4588 153.312 54.3899 153.254 54.3899C153.254 54.4358 153.243 54.4473 153.22 54.4473Z" fill="white"/>
</mask>
<g mask="url(#mask12_99_1503)">
<path d="M156.299 62.2027L156.196 54.2981L145.384 54.436L145.499 62.352L156.299 62.2027Z" fill="url(#paint12_radial_99_1503)"/>
</g>
<mask id="mask13_99_1503" style="mask-type:luminance" maskUnits="userSpaceOnUse" x="150" y="65" width="12" height="9">
<path d="M158.505 65.0632C158.401 65.0747 157.298 65.2011 157.126 65.2586C157 65.3045 156.954 65.339 156.977 65.4194C157 65.4883 157.057 65.5113 157.161 65.4998C157.252 65.4883 157.413 65.4998 157.62 65.5573C157.93 65.6492 158.068 65.9019 158.309 66.5453L158.918 68.2228L154.277 69.7623C153.231 70.107 152.335 70.4057 151.841 70.5091C151.496 70.5895 151.232 70.601 151.106 70.3827C151.048 70.2908 150.979 70.1644 150.922 69.9921C150.876 69.8542 150.83 69.8198 150.773 69.8427C150.692 69.8657 150.681 69.9576 150.738 70.107C150.887 70.5666 151.163 71.2674 151.244 71.5202C151.347 71.8419 151.554 72.5657 151.795 73.3125C151.841 73.4389 151.898 73.5193 151.979 73.4848C152.036 73.4618 152.048 73.3929 152.013 73.278C151.956 73.1057 151.898 72.8529 151.864 72.6806C151.795 72.3244 152.025 72.175 152.324 72.0372C152.795 71.8189 153.691 71.5202 154.725 71.1755L159.366 69.6359L159.803 71.0721C160.113 72.0831 159.895 72.4967 159.608 72.6231L159.493 72.6806C159.32 72.7495 159.275 72.784 159.309 72.8759C159.332 72.9448 159.412 72.9448 159.527 72.9218C159.826 72.8184 160.619 72.6002 160.849 72.5197C161.021 72.4623 161.078 72.4278 161.055 72.3474C161.044 72.3014 160.986 72.221 160.895 72.0602C160.814 71.8993 160.699 71.658 160.573 71.3019L159.079 66.8096C158.953 66.4304 158.838 65.9939 158.758 65.6607C158.689 65.3734 158.758 65.2241 158.735 65.1322C158.723 65.0862 158.666 65.0632 158.574 65.0632C158.574 65.0632 158.539 65.0632 158.505 65.0632Z" fill="white"/>
</mask>
<g mask="url(#mask13_99_1503)">
<path d="M161.216 73.5192L161.102 64.9138L150.566 65.0632L150.692 73.6571L161.216 73.5192Z" fill="url(#paint13_radial_99_1503)"/>
</g>
<mask id="mask14_99_1503" style="mask-type:luminance" maskUnits="userSpaceOnUse" x="121" y="98" width="12" height="11">
<path d="M128.369 98.5429L128.047 99.485L127.576 98.7727C127.438 98.5659 127.151 98.5084 126.944 98.6463C126.737 98.7842 126.68 99.0714 126.818 99.2782L127.668 100.577L126.979 102.564L125.635 101.025L125.772 99.4506C125.795 99.1978 125.612 98.9795 125.359 98.9565C125.106 98.9335 124.888 99.1174 124.865 99.3701L124.807 100.071L124.187 99.3586C124.026 99.1748 123.739 99.1518 123.544 99.3242C123.36 99.485 123.337 99.7723 123.498 99.9676L124.175 100.737H123.566C123.314 100.737 123.107 100.944 123.107 101.197C123.107 101.312 123.153 101.415 123.222 101.496C123.302 101.588 123.429 101.645 123.566 101.645L124.957 101.634L126.163 103.012L124.417 103.391L123.118 102.507C122.912 102.369 122.624 102.426 122.486 102.633C122.349 102.84 122.395 103.127 122.613 103.265L123.199 103.656L122.28 103.851C122.038 103.908 121.878 104.15 121.935 104.391C121.958 104.471 121.992 104.54 122.038 104.598C122.142 104.713 122.303 104.77 122.475 104.736L123.486 104.517L123.199 105.046C123.107 105.218 123.13 105.436 123.256 105.574C123.291 105.609 123.325 105.643 123.371 105.666C123.589 105.793 123.865 105.701 123.992 105.482L124.658 104.265L126.531 103.862L125.933 105.586L124.497 106.241C124.267 106.344 124.164 106.62 124.279 106.85C124.302 106.896 124.325 106.93 124.359 106.965C124.486 107.114 124.704 107.16 124.888 107.068L125.52 106.781L125.209 107.677C125.152 107.838 125.198 108.01 125.301 108.125C125.347 108.182 125.416 108.228 125.485 108.251C125.726 108.332 125.979 108.205 126.071 107.976L126.404 106.999L126.715 107.516C126.841 107.734 127.117 107.803 127.335 107.677C127.553 107.55 127.622 107.275 127.496 107.056L126.795 105.85L127.323 104.322L128.472 105.643L128.426 107.056C128.426 107.183 128.472 107.286 128.541 107.378C128.622 107.47 128.737 107.527 128.863 107.527C129.116 107.539 129.323 107.344 129.334 107.091L129.346 106.654L129.851 107.229C129.851 107.229 129.851 107.229 129.851 107.24C130.012 107.424 130.299 107.447 130.494 107.275C130.69 107.114 130.701 106.815 130.54 106.631L129.886 105.873L130.736 105.816C130.989 105.804 131.184 105.586 131.161 105.333C131.149 105.08 130.931 104.885 130.678 104.908L129.127 105L127.863 103.552L129.863 103.127L131.069 103.851C131.287 103.977 131.563 103.908 131.689 103.69C131.816 103.472 131.747 103.196 131.528 103.07L131.161 102.851L131.919 102.691C132.16 102.633 132.321 102.392 132.275 102.151C132.218 101.909 131.977 101.748 131.735 101.794L130.759 102.001L131.126 101.231C131.23 101.002 131.138 100.737 130.908 100.622C130.678 100.508 130.414 100.611 130.299 100.841L129.633 102.242L127.909 102.61L128.541 100.783L129.782 100.117C130 100.002 130.092 99.7263 129.966 99.4965C129.851 99.2782 129.575 99.1863 129.346 99.3127L128.966 99.5195L129.219 98.7957C129.3 98.5544 129.173 98.3016 128.932 98.2212C128.886 98.2097 128.829 98.1982 128.783 98.1982C128.61 98.2327 128.438 98.3591 128.369 98.5429Z" fill="white"/>
</mask>
<g mask="url(#mask14_99_1503)">
<path d="M121.866 98.1638L121.786 108.366L132.333 108.447L132.413 98.2442L121.866 98.1638Z" fill="url(#paint14_linear_99_1503)"/>
</g>
<mask id="mask15_99_1503" style="mask-type:luminance" maskUnits="userSpaceOnUse" x="97" y="103" width="23" height="32">
<path d="M110.239 103.276C106.608 103.276 103.495 104.437 100.91 106.769C98.4278 109.044 97.187 111.767 97.187 114.926V121.785C97.2674 125.209 98.5772 128.219 101.105 130.805C103.644 133.24 106.689 134.447 110.239 134.447H119.844V134.355V129.575C119.844 129.311 119.786 129.035 119.683 128.748C119.338 127.967 118.729 127.576 117.845 127.576H110.239C109.297 127.576 108.435 127.231 107.654 126.554C106.321 125.405 105.655 123.808 105.655 121.763V114.903C105.655 113.915 105.93 112.996 106.482 112.158C107.401 110.802 108.653 110.112 110.25 110.112H119.66V105.287C119.66 105.023 119.602 104.77 119.499 104.506C119.154 103.667 118.545 103.253 117.649 103.253H110.239V103.276Z" fill="white"/>
</mask>
<g mask="url(#mask15_99_1503)">
<path d="M97.1871 103.104L96.9458 134.447L119.844 134.619L120.085 103.276L97.1871 103.104Z" fill="url(#paint15_linear_99_1503)"/>
</g>
<mask id="mask16_99_1503" style="mask-type:luminance" maskUnits="userSpaceOnUse" x="47" y="50" width="29" height="32">
<path d="M56.0672 50.3916L48.0248 79.5627C47.9673 79.7465 47.9443 79.8959 47.9443 79.9993C47.9443 80.2291 48.0133 80.4703 48.1397 80.7001C48.4843 81.2746 48.9209 81.5618 49.4724 81.5618H55.5042L56.5612 77.127L58.2846 70.2679L61.2603 58.3077L64.236 70.2679L65.9594 77.127L66.5454 79.5627C66.6028 79.7235 66.6603 79.8959 66.7407 80.0682C67.2347 81.0678 68.016 81.5618 69.096 81.5618H75.2886L67.2922 52.4252C67.2347 52.2184 67.1658 52.0231 67.0509 51.8392C66.5339 50.8741 65.7411 50.3916 64.6956 50.3916H56.0672V50.3916Z" fill="white"/>
</mask>
<g mask="url(#mask16_99_1503)">
<path d="M75.3233 50.3916H47.9561V81.5618H75.3233V50.3916Z" fill="url(#paint16_linear_99_1503)"/>
</g>
<mask id="mask17_99_1503" style="mask-type:luminance" maskUnits="userSpaceOnUse" x="26" y="29" width="126" height="126">
<path d="M29.1483 92.0056C29.1483 58.7559 56.1938 31.6988 89.4551 31.6988C122.705 31.6988 149.762 58.7444 149.762 92.0056C149.762 125.255 122.705 152.301 89.4551 152.301C56.2053 152.301 29.1483 125.255 29.1483 92.0056ZM26.9883 92.0056C26.9883 126.45 55.0104 154.472 89.4551 154.472C123.9 154.472 151.922 126.45 151.922 92.0056C151.922 57.561 123.9 29.5388 89.4551 29.5388C55.0104 29.5388 26.9883 57.561 26.9883 92.0056Z" fill="white"/>
</mask>
<g mask="url(#mask17_99_1503)">
<path d="M27.4363 22.1052L19.5547 154.024L151.474 161.906L159.355 29.9868L27.4363 22.1052Z" fill="url(#paint17_linear_99_1503)"/>
</g>
<mask id="mask18_99_1503" style="mask-type:luminance" maskUnits="userSpaceOnUse" x="23" y="118" width="11" height="10">
<path d="M30.929 119.017C30.8601 119.051 30.8716 119.12 30.929 119.235C30.9979 119.384 31.0784 119.557 31.1013 119.66C31.2048 120.039 31.0784 120.212 30.7337 120.407C30.412 120.602 30.1248 120.74 28.5393 121.544L26.7125 122.463C25.7589 122.946 24.9316 123.36 24.4721 123.532C24.1504 123.647 23.8976 123.704 23.7483 123.52C23.6793 123.44 23.5989 123.325 23.5185 123.164C23.461 123.038 23.4036 123.015 23.3461 123.038C23.2772 123.072 23.2772 123.164 23.3461 123.302C23.4495 123.509 23.6104 123.773 23.7253 124.003C23.8631 124.244 23.978 124.474 24.0355 124.589C24.1963 124.899 24.3457 125.232 24.5525 125.68C24.7708 126.128 25.035 126.714 25.4257 127.496C25.621 127.886 25.667 127.978 25.9772 127.921C26.2069 127.863 26.9652 127.599 27.195 127.473C27.2984 127.415 27.3788 127.381 27.3444 127.289C27.3099 127.22 27.2525 127.22 27.1261 127.254C26.6665 127.392 26.3793 127.381 26.1265 127.174C25.8623 126.967 25.644 126.531 25.5061 126.255C24.9661 125.198 25.0465 124.945 25.7474 124.566C26.0461 124.405 26.9997 123.934 27.3559 123.75L28.1716 123.337C28.229 123.302 28.275 123.291 28.3095 123.348C28.4359 123.601 28.9414 124.635 29.0218 124.842C29.1712 125.244 29.0907 125.474 28.9069 125.634C28.792 125.738 28.6541 125.807 28.5507 125.864C28.5048 125.887 28.4703 125.933 28.5048 126.002C28.5507 126.094 28.6656 126.037 28.7461 125.991C28.815 125.956 29.2516 125.772 29.4584 125.68C30.0099 125.451 30.1937 125.416 30.2626 125.382C30.3201 125.347 30.3316 125.313 30.3086 125.267C30.2856 125.221 30.2052 125.198 30.0903 125.175C29.9409 125.129 29.826 124.991 29.6882 124.75C29.5503 124.52 28.9414 123.325 28.8265 123.095C28.792 123.038 28.8265 123.003 28.9069 122.969L31.5379 121.648C31.6069 121.613 31.6528 121.613 31.6758 121.671C31.7792 121.877 32.3077 122.98 32.3766 123.164C32.572 123.716 32.503 123.877 32.3537 124.049C32.2503 124.164 32.0779 124.267 32.009 124.302C31.9171 124.348 31.8711 124.394 31.9056 124.474C31.9401 124.543 32.0205 124.531 32.0779 124.52C32.2158 124.474 32.6754 124.267 32.7903 124.221C33.2843 124.014 33.4337 124.003 33.5026 123.968C33.56 123.946 33.5945 123.911 33.56 123.854C33.5371 123.796 33.4681 123.75 33.4337 123.704C33.3647 123.635 33.2613 123.474 33.1464 123.291C33.0315 123.095 31.9975 121.027 31.8252 120.694C31.7562 120.545 31.6413 120.303 31.515 120.028C31.3886 119.763 31.2392 119.465 31.1013 119.178C31.0324 119.051 30.9865 118.982 30.929 118.982C30.952 119.005 30.9405 119.005 30.929 119.017Z" fill="white"/>
</mask>
<g mask="url(#mask18_99_1503)">
<path d="M34.031 127.967L33.5945 118.523L22.8521 119.028L23.3001 128.461L34.031 127.967Z" fill="url(#paint18_radial_99_1503)"/>
</g>
<mask id="mask19_99_1503" style="mask-type:luminance" maskUnits="userSpaceOnUse" x="29" y="129" width="13" height="12">
<path d="M36.4896 129.219L30.9863 133.367C30.182 133.976 29.8833 134.148 29.6191 133.964C29.4812 133.861 29.3433 133.7 29.2514 133.585C29.1825 133.493 29.125 133.447 29.0676 133.493C28.9872 133.562 29.0446 133.654 29.1365 133.769C29.5042 134.251 29.8718 134.653 29.9408 134.745C30.0786 134.918 30.3314 135.308 30.8025 135.906C30.9059 136.032 30.9863 136.101 31.0552 136.044C31.1127 135.998 31.0897 135.929 31.0093 135.825C30.8944 135.676 30.768 135.492 30.6991 135.297C30.6186 135.067 30.768 134.757 31.4688 134.182L35.2488 131.08L35.2718 131.103C35.2258 131.402 34.8696 133.321 34.6513 135.09C34.4445 136.779 34.1573 138.893 34.0539 139.904C34.0309 140.088 34.0194 140.272 34.0999 140.375C34.1688 140.455 34.2722 140.432 34.479 140.272L40.3615 135.871C40.8785 135.481 41.1313 135.4 41.407 135.607C41.5219 135.699 41.5793 135.768 41.6483 135.86C41.7402 135.975 41.8091 135.998 41.8551 135.963C41.924 135.906 41.8666 135.802 41.7747 135.687C41.43 135.239 41.1313 134.906 41.0508 134.814C40.9015 134.619 40.5798 134.159 40.2121 133.677C40.1087 133.539 40.0168 133.447 39.9479 133.504C39.8904 133.55 39.8904 133.608 39.9823 133.711C40.0857 133.838 40.2581 134.056 40.304 134.24C40.3845 134.527 40.2696 134.745 39.7181 135.193L35.6624 138.491L35.6279 138.445C35.6509 138.169 36.0186 135.906 36.1564 134.791C36.4437 132.413 36.8573 129.851 36.8917 129.656C36.9377 129.368 36.9951 129.196 36.9147 129.093C36.8917 129.07 36.8688 129.047 36.8228 129.047C36.7309 129.058 36.616 129.127 36.4896 129.219Z" fill="white"/>
</mask>
<g mask="url(#mask19_99_1503)">
<path d="M42.4523 140.444L41.8894 128.461L28.4585 129.081L29.01 141.064L42.4523 140.444Z" fill="url(#paint19_radial_99_1503)"/>
</g>
<mask id="mask20_99_1503" style="mask-type:luminance" maskUnits="userSpaceOnUse" x="40" y="138" width="11" height="12">
<path d="M44.9918 139.031C44.9114 139.088 44.0497 139.743 43.9348 139.881C43.8544 139.973 43.8314 140.042 43.8889 140.088C43.9463 140.134 44.0038 140.122 44.0727 140.065C44.1531 140.007 44.291 139.939 44.4863 139.881C44.785 139.801 45.0378 139.939 45.5663 140.364L46.9105 141.455L43.797 145.074C43.0961 145.89 42.4987 146.579 42.131 146.912C41.8783 147.142 41.66 147.292 41.4532 147.177C41.3613 147.131 41.2349 147.05 41.1085 146.935C41.0051 146.844 40.9476 146.844 40.9017 146.89C40.8442 146.947 40.8902 147.027 41.0051 147.131C41.3613 147.43 41.9357 147.889 42.1425 148.061C42.3953 148.268 42.9238 148.774 43.5097 149.279C43.6131 149.36 43.705 149.394 43.751 149.337C43.7855 149.291 43.774 149.233 43.6706 149.141C43.5327 149.027 43.3604 148.843 43.2455 148.716C43.0157 148.452 43.1306 148.211 43.3144 147.947C43.6016 147.533 44.1991 146.832 44.8999 146.016L48.0135 142.397L49.105 143.385C49.8748 144.075 49.8977 144.534 49.7254 144.776L49.645 144.879C49.5416 145.017 49.5186 145.074 49.5875 145.143C49.645 145.189 49.7024 145.155 49.7828 145.074C49.9782 144.844 50.5296 144.258 50.6905 144.075C50.8054 143.948 50.8398 143.879 50.7824 143.833C50.7479 143.799 50.656 143.764 50.5067 143.673C50.3573 143.581 50.139 143.431 49.8633 143.19L46.3705 140.18C46.0833 139.927 45.7616 139.617 45.5203 139.376C45.3135 139.169 45.3021 139.008 45.2331 138.939C45.2216 138.928 45.1986 138.916 45.1757 138.916C45.1412 138.939 45.0723 138.973 44.9918 139.031Z" fill="white"/>
</mask>
<g mask="url(#mask20_99_1503)">
<path d="M51.3337 149.394L50.8282 138.479L40.373 138.962L40.8786 149.877L51.3337 149.394Z" fill="url(#paint20_radial_99_1503)"/>
</g>
<mask id="mask21_99_1503" style="mask-type:luminance" maskUnits="userSpaceOnUse" x="49" y="146" width="11" height="11">
<path d="M54.2406 146.464C54.1946 146.533 54.2406 146.591 54.3555 146.66C54.4933 146.74 54.6542 146.855 54.7231 146.924C55.0104 147.188 54.9989 147.395 54.815 147.751C54.6427 148.084 54.4819 148.36 53.5742 149.877L52.5287 151.635C51.9772 152.554 51.5062 153.346 51.2074 153.737C50.9891 154.001 50.8168 154.197 50.587 154.116C50.4836 154.082 50.3572 154.036 50.2079 153.944C50.093 153.875 50.0355 153.875 50.0011 153.932C49.9551 154.001 50.0126 154.07 50.1389 154.151C50.3343 154.266 50.61 154.403 50.8398 154.541C51.0811 154.679 51.2994 154.806 51.4142 154.875C51.713 155.058 52.0232 155.254 52.4368 155.529C52.8619 155.794 53.4019 156.15 54.1487 156.598C54.5278 156.828 54.6197 156.874 54.838 156.655C55.0104 156.483 55.4929 155.851 55.6308 155.621C55.6882 155.518 55.7342 155.437 55.6538 155.392C55.5848 155.346 55.5389 155.38 55.4584 155.472C55.1482 155.84 54.8955 155.977 54.5623 155.943C54.2291 155.909 53.8155 155.656 53.5512 155.506C52.5287 154.897 52.4598 154.656 52.8504 153.955C53.0112 153.657 53.5742 152.749 53.7695 152.404L54.2406 151.612C54.2751 151.554 54.3095 151.52 54.3555 151.543C54.5968 151.681 55.5733 152.289 55.7572 152.416C56.1018 152.68 56.1478 152.91 56.0789 153.14C56.0329 153.289 55.9525 153.415 55.9065 153.519C55.8721 153.565 55.8721 153.622 55.941 153.657C56.0329 153.714 56.1018 153.599 56.1478 153.519C56.1938 153.45 56.458 153.071 56.5844 152.875C56.9291 152.393 57.0669 152.255 57.1014 152.198C57.1359 152.14 57.1244 152.094 57.0784 152.071C57.0325 152.037 56.9635 152.071 56.8371 152.106C56.6878 152.152 56.5154 152.094 56.2742 151.968C56.0329 151.853 54.884 151.163 54.6657 151.037C54.6082 151.003 54.6197 150.957 54.6657 150.888L56.1708 148.36C56.2167 148.291 56.2512 148.268 56.2972 148.303C56.4925 148.418 57.538 149.072 57.6873 149.187C58.1469 149.544 58.1814 149.727 58.1469 149.946C58.1239 150.095 58.032 150.267 57.9976 150.336C57.9401 150.428 57.9286 150.486 57.9976 150.532C58.0665 150.578 58.1239 150.52 58.1584 150.486C58.2503 150.382 58.5375 149.946 58.6065 149.854C58.9167 149.406 59.0316 149.325 59.0775 149.256C59.112 149.21 59.1235 149.164 59.0661 149.13C59.0201 149.095 58.9397 149.095 58.8822 149.072C58.7903 149.049 58.618 148.969 58.4227 148.877C58.2273 148.774 56.2397 147.59 55.918 147.395C55.7801 147.315 55.5504 147.165 55.2976 146.993C55.0448 146.844 54.7691 146.66 54.4933 146.499C54.4014 146.441 54.344 146.418 54.2865 146.418C54.2865 146.43 54.2636 146.441 54.2406 146.464Z" fill="white"/>
</mask>
<g mask="url(#mask21_99_1503)">
<path d="M59.6291 156.839L59.1236 146.005L49.4727 146.453L49.9667 157.287L59.6291 156.839Z" fill="url(#paint21_radial_99_1503)"/>
</g>
<mask id="mask22_99_1503" style="mask-type:luminance" maskUnits="userSpaceOnUse" x="60" y="151" width="10" height="12">
<path d="M65.2932 157.08C65.0175 156.977 64.7073 156.828 64.5005 156.655C64.4315 156.598 64.4315 156.54 64.4775 156.426L65.7298 153.117C65.7643 153.025 65.7987 152.99 65.8907 153.002C66.017 153.013 66.2124 153.071 66.4881 153.174C67.1315 153.415 67.9932 154.254 67.4072 155.794C67.074 156.69 66.5685 157.069 66.1549 157.184C66.063 157.207 65.9826 157.218 65.8907 157.218C65.7298 157.23 65.5575 157.184 65.2932 157.08ZM63.5698 151.612C63.5469 151.692 63.6043 151.738 63.7192 151.784C63.8686 151.841 64.0524 151.922 64.1328 151.979C64.466 152.186 64.489 152.393 64.3626 152.772C64.2477 153.128 64.1328 153.438 63.5124 155.093L62.7886 157.012C62.4094 158.011 62.0877 158.873 61.8579 159.309C61.6971 159.608 61.5477 159.826 61.318 159.792C61.2145 159.78 61.0767 159.746 60.9158 159.689C60.7894 159.643 60.732 159.654 60.709 159.712C60.686 159.792 60.7435 159.849 60.8814 159.907C61.318 160.068 62.0188 160.297 62.2256 160.378C62.3864 160.435 63.1792 160.78 63.8111 161.01C63.949 161.067 64.0409 161.056 64.0754 160.987C64.0983 160.929 64.0639 160.883 63.972 160.849C63.8456 160.803 63.6043 160.688 63.4549 160.608C63.1447 160.435 63.1677 160.171 63.2596 159.849C63.3745 159.367 63.7077 158.517 64.0868 157.494L64.1443 157.345C64.1673 157.276 64.2132 157.264 64.2707 157.287L65.2128 157.666C65.2932 157.689 65.3507 157.735 65.3851 157.816C65.4655 158.034 65.6838 158.965 65.9021 159.723C66.2009 160.791 66.4192 161.458 66.7868 161.883C67.0166 162.147 67.2694 162.297 67.8783 162.526L68.9123 162.917C69.0387 162.963 69.1306 162.974 69.1651 162.883C69.1881 162.825 69.1536 162.779 69.0617 162.745C68.9698 162.71 68.8778 162.664 68.763 162.595C68.6136 162.503 68.2 162.262 67.8208 161.4C67.4302 160.481 67.0511 159.229 66.534 157.643C67.9702 157.161 68.5906 156.552 68.8893 155.748C69.1651 155.012 68.9353 154.3 68.7055 153.978C68.2689 153.358 67.5681 153.013 66.8787 152.761C66.5455 152.634 65.6953 152.347 65.3277 152.209C65.0979 152.117 64.42 151.83 63.8456 151.612C63.7652 151.577 63.7077 151.566 63.6617 151.566C63.6043 151.554 63.5813 151.566 63.5698 151.612Z" fill="white"/>
</mask>
<g mask="url(#mask22_99_1503)">
<path d="M69.6935 162.94L69.142 151.164L60.146 151.577L60.6975 163.354L69.6935 162.94Z" fill="url(#paint22_radial_99_1503)"/>
</g>
<mask id="mask23_99_1503" style="mask-type:luminance" maskUnits="userSpaceOnUse" x="74" y="155" width="9" height="10">
<path d="M74.6798 155.3C74.6453 155.391 74.2432 156.391 74.2087 156.575C74.1857 156.701 74.1972 156.759 74.2776 156.782C74.3466 156.793 74.3925 156.759 74.427 156.667C74.4615 156.575 74.5419 156.448 74.6912 156.299C74.9095 156.081 75.1968 156.069 75.8631 156.161L77.5865 156.414L76.7593 161.125C76.5755 162.182 76.4146 163.089 76.2768 163.56C76.1848 163.882 76.0699 164.123 75.8287 164.135C75.7253 164.146 75.5759 164.135 75.4036 164.112C75.2657 164.089 75.2197 164.112 75.2083 164.169C75.1968 164.25 75.2657 164.296 75.4151 164.319C75.8746 164.399 76.5984 164.491 76.8627 164.537C77.1844 164.594 77.8967 164.755 78.655 164.882C78.7814 164.905 78.8733 164.882 78.8963 164.801C78.9078 164.744 78.8503 164.698 78.724 164.675C78.5516 164.64 78.2989 164.583 78.1495 164.525C77.8163 164.422 77.7818 164.158 77.8163 163.825C77.8393 163.319 78.0001 162.411 78.184 161.354L79.0112 156.655L80.4473 156.943C81.4699 157.149 81.7226 157.517 81.6882 157.827L81.6767 157.954C81.6537 158.126 81.6652 158.183 81.7571 158.206C81.826 158.218 81.8605 158.16 81.895 158.045C81.9524 157.747 82.1248 156.965 82.1592 156.724C82.1937 156.552 82.1937 156.483 82.1133 156.471C82.0673 156.46 81.9754 156.471 81.7916 156.471C81.6192 156.46 81.355 156.46 80.9873 156.391L76.4376 155.598C76.0585 155.529 75.6219 155.437 75.3002 155.334C75.0129 155.265 74.921 155.127 74.8291 155.104C74.8176 155.104 74.8176 155.104 74.8176 155.104C74.7717 155.104 74.7257 155.173 74.6798 155.3Z" fill="white"/>
</mask>
<g mask="url(#mask23_99_1503)">
<path d="M82.6532 164.882L82.1821 154.737L73.7261 155.127L74.1971 165.272L82.6532 164.882Z" fill="url(#paint23_radial_99_1503)"/>
</g>
<mask id="mask24_99_1503" style="mask-type:luminance" maskUnits="userSpaceOnUse" x="85" y="156" width="10" height="10">
<path d="M88.3518 161.986L89.3743 159.103C89.3858 159.057 89.4088 158.999 89.4433 158.999C89.4777 158.999 89.4892 159.057 89.5007 159.103L90.5922 161.963C90.6037 161.998 90.5922 162.032 90.5348 162.032L88.3978 162.067C88.3518 162.067 88.3403 162.032 88.3518 161.986ZM89.6845 156.609C89.5697 156.609 89.5007 156.736 89.3629 157.08L86.5595 164.434C86.3412 165.019 86.1229 165.422 85.5829 165.491C85.491 165.502 85.3301 165.525 85.2267 165.525C85.1348 165.525 85.0889 165.548 85.0889 165.617C85.0889 165.709 85.1578 165.732 85.3187 165.732C85.9276 165.72 86.5595 165.674 86.6974 165.674C86.8697 165.674 87.088 165.674 87.2948 165.686C87.5131 165.686 87.7314 165.697 87.9267 165.697C88.0531 165.697 88.122 165.674 88.122 165.582C88.122 165.514 88.0876 165.491 87.9497 165.491H87.7773C87.4212 165.502 87.3063 165.353 87.3063 165.134C87.3063 164.996 87.3522 164.721 87.4671 164.422L88.0646 162.745C88.0876 162.676 88.1105 162.653 88.168 162.653L90.7645 162.607C90.822 162.607 90.8564 162.63 90.8794 162.687L91.856 165.134C91.9135 165.272 91.833 165.376 91.7526 165.399C91.6377 165.41 91.5918 165.433 91.5918 165.502C91.5918 165.582 91.7296 165.582 91.9479 165.594C92.8785 165.605 93.7287 165.582 94.1539 165.582C94.579 165.571 94.6938 165.548 94.6824 165.456C94.6824 165.376 94.6249 165.364 94.533 165.364C94.3951 165.364 94.2228 165.353 94.039 165.33C93.7977 165.272 93.453 165.123 92.9934 164.077C92.2237 162.32 90.282 157.609 89.9833 156.966C89.8684 156.713 89.7994 156.609 89.6845 156.609C89.696 156.609 89.696 156.609 89.6845 156.609Z" fill="white"/>
</mask>
<g mask="url(#mask24_99_1503)">
<path d="M95.1075 165.72L94.6594 156.161L84.6753 156.621L85.1234 166.18L95.1075 165.72Z" fill="url(#paint24_radial_99_1503)"/>
</g>
<mask id="mask25_99_1503" style="mask-type:luminance" maskUnits="userSpaceOnUse" x="98" y="155" width="6" height="10">
<path d="M101.185 155.794C100.749 155.863 100.071 156 99.7952 156.046C99.462 156.104 98.7382 156.184 98.2901 156.253C98.1063 156.288 98.0144 156.322 98.0259 156.391C98.0374 156.483 98.1178 156.494 98.2327 156.483C98.3705 156.46 98.5199 156.448 98.6578 156.46C98.922 156.471 99.0714 156.655 99.1518 157.034C99.2322 157.402 99.2897 157.724 99.5654 159.47L99.8986 161.492C100.082 162.607 100.232 163.514 100.243 164.008C100.266 164.353 100.232 164.548 100.002 164.64C99.8986 164.675 99.7722 164.721 99.5999 164.755C99.462 164.778 99.4275 164.824 99.4275 164.882C99.439 164.962 99.5309 164.985 99.6803 164.962C100.14 164.882 100.864 164.732 101.128 164.698C101.438 164.652 102.173 164.56 102.932 164.445C103.058 164.422 103.139 164.376 103.127 164.296C103.116 164.238 103.058 164.215 102.932 164.238C102.759 164.261 102.507 164.284 102.334 164.284C101.978 164.296 101.875 164.1 101.783 163.802C101.656 163.319 101.507 162.411 101.323 161.297L100.99 159.275C100.703 157.528 100.657 157.207 100.622 156.839C100.576 156.437 100.645 156.219 100.944 156.115C101.082 156.069 101.174 156.046 101.289 156.023C101.404 156.012 101.473 155.977 101.45 155.886C101.438 155.84 101.392 155.817 101.323 155.817C101.277 155.782 101.231 155.794 101.185 155.794Z" fill="white"/>
</mask>
<g mask="url(#mask25_99_1503)">
<path d="M103.552 164.962L103.116 155.552L97.5894 155.805L98.0259 165.215L103.552 164.962Z" fill="url(#paint25_radial_99_1503)"/>
</g>
<mask id="mask26_99_1503" style="mask-type:luminance" maskUnits="userSpaceOnUse" x="107" y="151" width="11" height="13">
<path d="M115.076 151.68C114.536 151.864 114.134 152.048 114.008 152.094C113.778 152.174 113.238 152.335 112.663 152.531C112.502 152.588 112.388 152.646 112.411 152.737C112.434 152.806 112.491 152.818 112.617 152.772C112.778 152.714 113.031 152.623 113.226 152.634C113.525 152.646 113.709 152.829 113.95 153.484L115.811 158.379L115.754 158.402C115.501 158.287 113.468 157.241 112.456 156.759C110.285 155.736 107.987 154.541 107.803 154.449C107.551 154.323 107.401 154.208 107.275 154.254C107.16 154.288 107.183 154.461 107.263 154.679L109.469 161.205C109.802 162.159 109.871 162.492 109.619 162.687C109.481 162.79 109.285 162.871 109.148 162.917C109.033 162.951 108.975 162.997 108.998 163.066C109.033 163.17 109.136 163.147 109.274 163.089C109.848 162.882 110.342 162.676 110.446 162.641C110.653 162.561 111.101 162.446 111.813 162.193C111.962 162.136 112.054 162.078 112.031 161.998C112.008 161.929 111.939 161.929 111.813 161.975C111.641 162.032 111.422 162.101 111.216 162.101C110.963 162.101 110.722 161.871 110.4 161.021L108.642 156.46L108.677 156.448C108.952 156.586 110.653 157.528 112.273 158.287C113.812 159.011 115.731 159.953 116.65 160.366C116.811 160.447 116.983 160.516 117.11 160.47C117.213 160.435 117.213 160.32 117.133 160.079L114.8 153.117C114.593 152.496 114.605 152.243 114.881 152.037C114.996 151.956 115.088 151.922 115.202 151.887C115.329 151.841 115.386 151.784 115.363 151.715C115.352 151.669 115.317 151.657 115.271 151.657C115.214 151.623 115.145 151.646 115.076 151.68Z" fill="white"/>
</mask>
<g mask="url(#mask26_99_1503)">
<path d="M117.765 163.124L117.202 151.163L106.643 151.657L107.195 163.606L117.765 163.124Z" fill="url(#paint26_radial_99_1503)"/>
</g>
<mask id="mask27_99_1503" style="mask-type:luminance" maskUnits="userSpaceOnUse" x="120" y="144" width="14" height="14">
<path d="M126.714 144.638C126.622 144.695 126.622 144.81 126.645 145.017L127.587 152.324L121.36 148.521C121.073 148.349 120.981 148.337 120.901 148.383C120.82 148.429 120.82 148.555 120.901 148.751L124.049 155.759C124.21 156.127 124.382 156.552 124.141 156.793C124.014 156.919 123.945 156.965 123.865 157.011C123.761 157.069 123.715 157.126 123.75 157.184C123.807 157.276 123.899 157.241 123.991 157.172C124.301 156.965 124.75 156.644 124.945 156.517C125.117 156.402 125.577 156.15 125.99 155.885C126.14 155.794 126.209 155.713 126.151 155.621C126.117 155.575 126.036 155.598 125.956 155.644C125.852 155.702 125.715 155.782 125.508 155.862C125.313 155.931 125.129 155.92 125.014 155.736C124.91 155.575 124.841 155.449 124.75 155.254L122.75 151.037L122.785 151.014C123.601 151.531 124.979 152.381 125.198 152.531C125.496 152.726 127.231 153.725 127.76 154.024C128.104 154.219 128.334 154.346 128.415 154.288C128.506 154.231 128.495 154.116 128.426 153.507L127.691 147.694L127.725 147.671L131.092 151.6C131.31 151.853 131.356 151.991 131.31 152.048C131.264 152.117 131.241 152.174 131.275 152.22C131.31 152.278 131.39 152.266 131.632 152.14C132.045 151.922 133.412 151.071 133.654 150.922C133.792 150.83 133.895 150.727 133.837 150.646C133.803 150.589 133.723 150.623 133.642 150.681C133.516 150.761 133.309 150.876 132.976 150.968C132.631 151.071 132.344 150.853 131.861 150.29L127.07 144.81C126.944 144.672 126.852 144.603 126.772 144.603C126.76 144.615 126.737 144.626 126.714 144.638Z" fill="white"/>
</mask>
<g mask="url(#mask27_99_1503)">
<path d="M134.504 157.23L133.884 144.017L120.234 144.649L120.855 157.862L134.504 157.23Z" fill="url(#paint27_radial_99_1503)"/>
</g>
<mask id="mask28_99_1503" style="mask-type:luminance" maskUnits="userSpaceOnUse" x="132" y="136" width="11" height="11">
<path d="M135.917 136.721C135.871 136.767 135.848 136.836 135.814 136.882C135.768 136.963 135.641 137.112 135.503 137.284C135.354 137.445 133.7 139.065 133.435 139.329C133.32 139.444 133.125 139.628 132.895 139.824C132.689 140.03 132.436 140.26 132.217 140.478C132.091 140.605 132.045 140.674 132.103 140.731C132.16 140.789 132.229 140.754 132.321 140.662C132.436 140.547 132.585 140.421 132.666 140.375C132.999 140.168 133.194 140.237 133.493 140.501C133.769 140.754 133.998 140.984 135.239 142.248L136.675 143.718C137.422 144.488 138.065 145.143 138.364 145.534C138.571 145.809 138.709 146.028 138.571 146.223C138.514 146.315 138.433 146.43 138.307 146.545C138.203 146.648 138.203 146.706 138.238 146.74C138.295 146.797 138.376 146.763 138.491 146.66C138.651 146.499 138.858 146.269 139.042 146.085C139.237 145.878 139.421 145.706 139.513 145.614C139.766 145.373 140.03 145.132 140.398 144.787C140.765 144.442 141.236 144.017 141.857 143.397C142.179 143.086 142.248 143.018 142.098 142.742C141.983 142.535 141.489 141.903 141.305 141.708C141.225 141.627 141.156 141.558 141.087 141.627C141.03 141.685 141.041 141.731 141.122 141.846C141.397 142.248 141.466 142.512 141.351 142.822C141.236 143.132 140.88 143.477 140.662 143.684C139.812 144.511 139.559 144.523 138.985 143.96C138.743 143.73 137.997 142.949 137.721 142.673L137.077 142.018C137.031 141.972 137.008 141.926 137.043 141.892C137.238 141.696 138.077 140.892 138.249 140.766C138.594 140.501 138.824 140.501 139.031 140.639C139.157 140.72 139.272 140.835 139.352 140.904C139.387 140.949 139.444 140.961 139.502 140.904C139.571 140.835 139.49 140.743 139.421 140.674C139.364 140.616 139.065 140.26 138.904 140.088C138.525 139.628 138.422 139.467 138.376 139.421C138.33 139.375 138.284 139.375 138.249 139.41C138.203 139.456 138.215 139.525 138.226 139.651C138.238 139.812 138.134 139.95 137.951 140.168C137.778 140.375 136.813 141.306 136.641 141.489C136.595 141.535 136.549 141.512 136.491 141.455L134.435 139.352C134.377 139.295 134.366 139.249 134.412 139.215C134.584 139.054 135.469 138.215 135.63 138.089C136.089 137.733 136.273 137.744 136.48 137.847C136.618 137.905 136.767 138.043 136.825 138.1C136.905 138.181 136.951 138.204 137.02 138.146C137.077 138.089 137.043 138.02 137.008 137.974C136.928 137.859 136.583 137.48 136.514 137.388C136.17 136.986 136.112 136.836 136.055 136.779C136.032 136.756 135.997 136.733 135.974 136.733C135.94 136.698 135.928 136.71 135.917 136.721Z" fill="white"/>
</mask>
<g mask="url(#mask28_99_1503)">
<path d="M142.707 146.786L142.225 136.227L131.574 136.721L132.068 147.268L142.707 146.786Z" fill="url(#paint28_radial_99_1503)"/>
</g>
<mask id="mask29_99_1503" style="mask-type:luminance" maskUnits="userSpaceOnUse" x="139" y="125" width="13" height="14">
<path d="M144.695 125.347C144.373 125.818 144.144 126.209 144.075 126.312C143.937 126.519 143.592 126.956 143.248 127.45C143.144 127.599 143.087 127.702 143.167 127.76C143.225 127.794 143.282 127.783 143.362 127.668C143.454 127.53 143.615 127.3 143.765 127.197C144.017 127.036 144.259 127.071 144.856 127.461L149.233 130.333L149.199 130.379C148.935 130.437 146.66 130.782 145.557 130.988C143.202 131.436 140.628 131.816 140.433 131.839C140.145 131.885 139.962 131.885 139.893 131.988C139.824 132.08 139.939 132.206 140.134 132.333L145.752 136.331C146.579 136.917 146.832 137.147 146.74 137.445C146.683 137.606 146.579 137.79 146.487 137.905C146.419 137.997 146.407 138.077 146.465 138.112C146.556 138.169 146.625 138.089 146.706 137.962C147.05 137.468 147.326 136.997 147.395 136.905C147.522 136.721 147.82 136.354 148.245 135.733C148.337 135.596 148.383 135.504 148.303 135.446C148.245 135.412 148.188 135.446 148.119 135.55C148.016 135.699 147.878 135.883 147.705 136.009C147.51 136.159 147.165 136.101 146.407 135.607L142.305 132.942L142.328 132.919C142.627 132.873 144.557 132.631 146.315 132.298C147.993 131.976 150.095 131.62 151.083 131.413C151.256 131.379 151.451 131.333 151.52 131.23C151.577 131.149 151.52 131.046 151.313 130.896L145.327 126.622C144.799 126.243 144.649 126.025 144.753 125.703C144.799 125.565 144.856 125.497 144.925 125.393C145.005 125.278 145.017 125.198 144.959 125.163C144.948 125.152 144.925 125.152 144.913 125.152C144.833 125.175 144.764 125.244 144.695 125.347Z" fill="white"/>
</mask>
<g mask="url(#mask29_99_1503)">
<path d="M152.163 138.158L151.531 124.623L139.215 125.198L139.847 138.721L152.163 138.158Z" fill="url(#paint29_radial_99_1503)"/>
</g>
<mask id="mask30_99_1503" style="mask-type:luminance" maskUnits="userSpaceOnUse" x="146" y="114" width="12" height="9">
<path d="M149.727 114.283C149.716 114.329 149.693 114.421 149.658 114.593C149.612 114.766 149.543 115.007 149.394 115.352L147.59 119.591C147.441 119.947 147.246 120.349 147.085 120.637C146.947 120.901 146.797 120.958 146.763 121.039C146.74 121.108 146.786 121.165 146.912 121.257C146.993 121.314 147.877 121.935 148.05 122.004C148.165 122.05 148.234 122.05 148.257 121.981C148.28 121.912 148.257 121.866 148.176 121.808C148.096 121.751 147.992 121.648 147.877 121.464C147.705 121.2 147.763 120.924 148.004 120.292L148.636 118.672L153.036 120.533C154.024 120.947 154.874 121.314 155.299 121.556C155.598 121.717 155.805 121.877 155.759 122.119C155.736 122.222 155.702 122.36 155.633 122.521C155.575 122.647 155.587 122.705 155.644 122.728C155.713 122.762 155.782 122.705 155.839 122.555C156.023 122.13 156.276 121.441 156.379 121.188C156.506 120.889 156.828 120.223 157.126 119.522C157.172 119.407 157.184 119.304 157.103 119.269C157.046 119.246 156.988 119.281 156.942 119.407C156.874 119.568 156.747 119.798 156.667 119.936C156.483 120.234 156.23 120.2 155.908 120.108C155.426 119.97 154.576 119.603 153.588 119.189L149.187 117.328L149.796 115.995C150.221 115.053 150.646 114.88 150.934 114.984L151.06 115.018C151.221 115.076 151.29 115.076 151.324 114.995C151.347 114.926 151.301 114.881 151.198 114.823C150.922 114.708 150.187 114.363 149.969 114.26C149.877 114.226 149.819 114.203 149.773 114.203C149.762 114.226 149.739 114.249 149.727 114.283Z" fill="white"/>
</mask>
<g mask="url(#mask30_99_1503)">
<path d="M157.586 122.762L157.172 113.743L146.338 114.249L146.752 123.268L157.586 122.762Z" fill="url(#paint30_radial_99_1503)"/>
</g>
<path d="M89.4547 150.865C56.9977 150.865 30.584 124.462 30.584 91.994C30.584 59.537 56.9862 33.1233 89.4547 33.1233C121.912 33.1233 148.325 59.5255 148.325 91.994C148.314 124.462 121.912 150.865 89.4547 150.865ZM89.4547 35.042C58.0547 35.042 32.5027 60.594 32.5027 91.994C32.5027 123.394 58.0547 148.946 89.4547 148.946C120.866 148.946 146.407 123.394 146.407 91.994C146.407 60.594 120.855 35.042 89.4547 35.042Z" fill="#273375"/>
<path d="M53.5278 125.244C51.1955 122.647 47.3581 122.222 44.5317 124.072C47.2087 127.806 50.3338 131.195 53.838 134.159C55.8716 131.563 55.8141 127.794 53.5278 125.244Z" fill="#273375"/>
<mask id="mask31_99_1503" style="mask-type:luminance" maskUnits="userSpaceOnUse" x="36" y="45" width="93" height="73">
<path d="M102.932 60.9731L108.205 66.8441L107.229 67.7173L101.955 61.8463L99.7607 63.811L103.265 67.7173L102.288 68.5905L98.7841 64.6841L96.5897 66.6488L101.863 72.5198L100.887 73.3929L95.6131 67.522L93.4187 69.4866L96.9229 73.3929L95.9463 74.2661L92.4421 70.3598L90.6498 71.9683L95.9233 77.8393L94.9467 78.7124L89.6732 72.8644L87.4787 74.8291L90.983 78.7354L90.0179 79.6201L86.5137 75.7138L84.3192 77.6784L89.5928 83.5494L88.6162 84.4226L83.3426 78.5516L81.1482 80.5162L84.6524 84.4226L83.6758 85.2958L80.1716 81.3779L77.7704 83.5379L83.0439 89.4089L82.0673 90.2821L76.7938 84.4111L74.5879 86.3987L78.0921 90.305L77.1155 91.1782L73.6113 87.2719L71.4168 89.2366L76.6904 95.1075L75.7138 95.9807L70.4403 90.1097L68.2458 92.0744L71.75 95.9807L70.7734 96.8539L67.2692 92.9476L65.4769 94.556L70.7505 100.427L69.7739 101.3L64.5003 95.4292L62.3059 97.3939L65.8216 101.3L64.845 102.173L61.3408 98.2671L59.1464 100.232L64.4199 106.103L63.4433 106.976L58.1698 101.105L55.9754 103.07L59.491 106.976L58.5145 107.849L54.9988 103.931L54.746 104.161C48.5763 102.633 41.9585 103.368 36.168 106.378C37.179 110.124 38.5807 113.697 40.3156 117.086C45.4053 113.869 51.9312 114.03 56.8485 117.385L128.61 53.0111C125.933 50.3226 122.969 47.8984 119.786 45.8074L102.932 60.9731Z" fill="white"/>
</mask>
<g mask="url(#mask31_99_1503)">
<path d="M88.0991 0L0.631836 77.2189L76.6329 163.319L164.112 86.1001L88.0991 0Z" fill="url(#paint31_linear_99_1503)"/>
</g>
<mask id="mask32_99_1503" style="mask-type:luminance" maskUnits="userSpaceOnUse" x="60" y="58" width="80" height="86">
<path d="M61.7771 123.061C64.3737 128.15 63.8682 134.343 60.3984 138.95C63.6384 140.961 67.0966 142.65 70.7387 143.971C74.197 138.491 75.4723 131.976 74.4727 125.726H74.4842L70.7043 121.51L71.6808 120.636L75.4608 124.853L77.6552 122.888L72.0715 116.673L73.048 115.8L78.6318 122.015L80.8262 120.051L77.0463 115.834L78.0229 114.961L81.8028 119.177L83.9973 117.213L78.4135 110.963L79.3901 110.089L84.9738 116.305L86.7662 114.697L82.9862 110.48L83.9628 109.607L87.7427 113.823L89.9372 111.859L84.3649 105.643L85.3415 104.77L90.9252 110.986L93.1197 109.021L89.3168 104.781L90.2933 103.908L94.0733 108.125L96.2677 106.16L90.684 99.9444L91.6606 99.0713L97.2443 105.287L99.6455 103.127L95.8656 98.9104L96.8422 98.0372L100.622 102.254L102.817 100.289L97.2328 94.0735L98.2094 93.2003L103.793 99.4159L105.988 97.4513L102.208 93.2347L103.184 92.3616L106.964 96.5781L109.159 94.6135L103.586 88.3978L104.563 87.5246L110.147 93.7403L111.939 92.1318L108.159 87.9153L109.136 87.0421L112.916 91.2586L115.11 89.294L109.526 83.0783L110.503 82.2051L116.087 88.4208L118.281 86.4561L114.49 82.1936L115.466 81.3204L119.246 85.537L121.441 83.5723L115.857 77.3567L116.833 76.4835L122.417 82.6992L139.065 67.7632C137.491 64.5577 135.63 61.536 133.493 58.7212L61.7771 123.061Z" fill="white"/>
</mask>
<g mask="url(#mask32_99_1503)">
<path d="M104.609 19.6924L18.1064 96.0611L94.8543 183L181.368 106.631L104.609 19.6924Z" fill="url(#paint32_linear_99_1503)"/>
</g>
<defs>
<radialGradient id="paint0_radial_99_1503" cx="0" cy="0" r="1" gradientUnits="userSpaceOnUse" gradientTransform="translate(91.6639 48.9784) rotate(-90.769) scale(64.3924 64.3924)">
<stop stop-color="#273375"/>
<stop offset="0.1061" stop-color="#273375"/>
<stop offset="0.1134" stop-color="#2A3373"/>
<stop offset="0.3667" stop-color="#9C253C"/>
<stop offset="0.4788" stop-color="#CA2026"/>
<stop offset="0.5455" stop-color="#B32331"/>
<stop offset="0.6859" stop-color="#772A4E"/>
<stop offset="0.8547" stop-color="#273375"/>
<stop offset="1" stop-color="#273375"/>
</radialGradient>
<radialGradient id="paint1_radial_99_1503" cx="0" cy="0" r="1" gradientUnits="userSpaceOnUse" gradientTransform="translate(91.4201 48.9812) rotate(-90.769) scale(64.1938 64.1938)">
<stop stop-color="#273375"/>
<stop offset="0.1061" stop-color="#273375"/>
<stop offset="0.1134" stop-color="#2A3373"/>
<stop offset="0.3667" stop-color="#9C253C"/>
<stop offset="0.4788" stop-color="#CA2026"/>
<stop offset="0.5455" stop-color="#B32331"/>
<stop offset="0.6859" stop-color="#772A4E"/>
<stop offset="0.8547" stop-color="#273375"/>
<stop offset="1" stop-color="#273375"/>
</radialGradient>
<radialGradient id="paint2_radial_99_1503" cx="0" cy="0" r="1" gradientUnits="userSpaceOnUse" gradientTransform="translate(91.2797 48.9889) rotate(-90.769) scale(64.0097 64.0097)">
<stop stop-color="#273375"/>
<stop offset="0.1061" stop-color="#273375"/>
<stop offset="0.1134" stop-color="#2A3373"/>
<stop offset="0.3667" stop-color="#9C253C"/>
<stop offset="0.4788" stop-color="#CA2026"/>
<stop offset="0.5455" stop-color="#B32331"/>
<stop offset="0.6859" stop-color="#772A4E"/>
<stop offset="0.8547" stop-color="#273375"/>
<stop offset="1" stop-color="#273375"/>
</radialGradient>
<radialGradient id="paint3_radial_99_1503" cx="0" cy="0" r="1" gradientUnits="userSpaceOnUse" gradientTransform="translate(91.2708 48.9922) rotate(-90.769) scale(64.0249)">
<stop stop-color="#273375"/>
<stop offset="0.1061" stop-color="#273375"/>
<stop offset="0.1134" stop-color="#2A3373"/>
<stop offset="0.3667" stop-color="#9C253C"/>
<stop offset="0.4788" stop-color="#CA2026"/>
<stop offset="0.5455" stop-color="#B32331"/>
<stop offset="0.6859" stop-color="#772A4E"/>
<stop offset="0.8547" stop-color="#273375"/>
<stop offset="1" stop-color="#273375"/>
</radialGradient>
<radialGradient id="paint4_radial_99_1503" cx="0" cy="0" r="1" gradientUnits="userSpaceOnUse" gradientTransform="translate(91.4638 48.9363) rotate(-90.769) scale(64.2266 64.2267)">
<stop stop-color="#273375"/>
<stop offset="0.1061" stop-color="#273375"/>
<stop offset="0.1134" stop-color="#2A3373"/>
<stop offset="0.3667" stop-color="#9C253C"/>
<stop offset="0.4788" stop-color="#CA2026"/>
<stop offset="0.5455" stop-color="#B32331"/>
<stop offset="0.6859" stop-color="#772A4E"/>
<stop offset="0.8547" stop-color="#273375"/>
<stop offset="1" stop-color="#273375"/>
</radialGradient>
<radialGradient id="paint5_radial_99_1503" cx="0" cy="0" r="1" gradientUnits="userSpaceOnUse" gradientTransform="translate(91.3596 48.9754) rotate(-90.769) scale(64.1376 64.1376)">
<stop stop-color="#273375"/>
<stop offset="0.1061" stop-color="#273375"/>
<stop offset="0.1134" stop-color="#2A3373"/>
<stop offset="0.3667" stop-color="#9C253C"/>
<stop offset="0.4788" stop-color="#CA2026"/>
<stop offset="0.5455" stop-color="#B32331"/>
<stop offset="0.6859" stop-color="#772A4E"/>
<stop offset="0.8547" stop-color="#273375"/>
<stop offset="1" stop-color="#273375"/>
</radialGradient>
<radialGradient id="paint6_radial_99_1503" cx="0" cy="0" r="1" gradientUnits="userSpaceOnUse" gradientTransform="translate(91.402 48.9212) rotate(-90.769) scale(64.0716 64.0716)">
<stop stop-color="#273375"/>
<stop offset="0.1061" stop-color="#273375"/>
<stop offset="0.1134" stop-color="#2A3373"/>
<stop offset="0.3667" stop-color="#9C253C"/>
<stop offset="0.4788" stop-color="#CA2026"/>
<stop offset="0.5455" stop-color="#B32331"/>
<stop offset="0.6859" stop-color="#772A4E"/>
<stop offset="0.8547" stop-color="#273375"/>
<stop offset="1" stop-color="#273375"/>
</radialGradient>
<radialGradient id="paint7_radial_99_1503" cx="0" cy="0" r="1" gradientUnits="userSpaceOnUse" gradientTransform="translate(91.3529 49.0193) rotate(-90.769) scale(64.28 64.28)">
<stop stop-color="#273375"/>
<stop offset="0.1061" stop-color="#273375"/>
<stop offset="0.1134" stop-color="#2A3373"/>
<stop offset="0.3667" stop-color="#9C253C"/>
<stop offset="0.4788" stop-color="#CA2026"/>
<stop offset="0.5455" stop-color="#B32331"/>
<stop offset="0.6859" stop-color="#772A4E"/>
<stop offset="0.8547" stop-color="#273375"/>
<stop offset="1" stop-color="#273375"/>
</radialGradient>
<radialGradient id="paint8_radial_99_1503" cx="0" cy="0" r="1" gradientUnits="userSpaceOnUse" gradientTransform="translate(91.3814 48.9971) rotate(-90.769) scale(64.2266 64.2266)">
<stop stop-color="#273375"/>
<stop offset="0.1061" stop-color="#273375"/>
<stop offset="0.1134" stop-color="#2A3373"/>
<stop offset="0.3667" stop-color="#9C253C"/>
<stop offset="0.4788" stop-color="#CA2026"/>
<stop offset="0.5455" stop-color="#B32331"/>
<stop offset="0.6859" stop-color="#772A4E"/>
<stop offset="0.8547" stop-color="#273375"/>
<stop offset="1" stop-color="#273375"/>
</radialGradient>
<radialGradient id="paint9_radial_99_1503" cx="0" cy="0" r="1" gradientUnits="userSpaceOnUse" gradientTransform="translate(91.5086 48.9678) rotate(-90.769) scale(64.0522 64.0521)">
<stop stop-color="#273375"/>
<stop offset="0.1061" stop-color="#273375"/>
<stop offset="0.1134" stop-color="#2A3373"/>
<stop offset="0.3667" stop-color="#9C253C"/>
<stop offset="0.4788" stop-color="#CA2026"/>
<stop offset="0.5455" stop-color="#B32331"/>
<stop offset="0.6859" stop-color="#772A4E"/>
<stop offset="0.8547" stop-color="#273375"/>
<stop offset="1" stop-color="#273375"/>
</radialGradient>
<radialGradient id="paint10_radial_99_1503" cx="0" cy="0" r="1" gradientUnits="userSpaceOnUse" gradientTransform="translate(91.3952 48.9843) rotate(-90.769) scale(64.1141 64.1141)">
<stop stop-color="#273375"/>
<stop offset="0.1061" stop-color="#273375"/>
<stop offset="0.1134" stop-color="#2A3373"/>
<stop offset="0.3667" stop-color="#9C253C"/>
<stop offset="0.4788" stop-color="#CA2026"/>
<stop offset="0.5455" stop-color="#B32331"/>
<stop offset="0.6859" stop-color="#772A4E"/>
<stop offset="0.8547" stop-color="#273375"/>
<stop offset="1" stop-color="#273375"/>
</radialGradient>
<radialGradient id="paint11_radial_99_1503" cx="0" cy="0" r="1" gradientUnits="userSpaceOnUse" gradientTransform="translate(91.5854 48.9849) rotate(-90.769) scale(63.9274)">
<stop stop-color="#273375"/>
<stop offset="0.1061" stop-color="#273375"/>
<stop offset="0.1134" stop-color="#2A3373"/>
<stop offset="0.3667" stop-color="#9C253C"/>
<stop offset="0.4788" stop-color="#CA2026"/>
<stop offset="0.5455" stop-color="#B32331"/>
<stop offset="0.6859" stop-color="#772A4E"/>
<stop offset="0.8547" stop-color="#273375"/>
<stop offset="1" stop-color="#273375"/>
</radialGradient>
<radialGradient id="paint12_radial_99_1503" cx="0" cy="0" r="1" gradientUnits="userSpaceOnUse" gradientTransform="translate(91.2089 48.9895) rotate(-90.769) scale(64.3362)">
<stop stop-color="#273375"/>
<stop offset="0.1061" stop-color="#273375"/>
<stop offset="0.1134" stop-color="#2A3373"/>
<stop offset="0.3667" stop-color="#9C253C"/>
<stop offset="0.4788" stop-color="#CA2026"/>
<stop offset="0.5455" stop-color="#B32331"/>
<stop offset="0.6859" stop-color="#772A4E"/>
<stop offset="0.8547" stop-color="#273375"/>
<stop offset="1" stop-color="#273375"/>
</radialGradient>
<radialGradient id="paint13_radial_99_1503" cx="0" cy="0" r="1" gradientUnits="userSpaceOnUse" gradientTransform="translate(91.3768 49.0137) rotate(-90.769) scale(64.1649 64.1649)">
<stop stop-color="#273375"/>
<stop offset="0.1061" stop-color="#273375"/>
<stop offset="0.1134" stop-color="#2A3373"/>
<stop offset="0.3667" stop-color="#9C253C"/>
<stop offset="0.4788" stop-color="#CA2026"/>
<stop offset="0.5455" stop-color="#B32331"/>
<stop offset="0.6859" stop-color="#772A4E"/>
<stop offset="0.8547" stop-color="#273375"/>
<stop offset="1" stop-color="#273375"/>
</radialGradient>
<linearGradient id="paint14_linear_99_1503" x1="127.102" y1="102.581" x2="126.813" y2="140.663" gradientUnits="userSpaceOnUse">
<stop stop-color="#CA2026"/>
<stop offset="0.0485883" stop-color="#AA2435"/>
<stop offset="0.1128" stop-color="#872846"/>
<stop offset="0.1836" stop-color="#692B55"/>
<stop offset="0.2612" stop-color="#512E61"/>
<stop offset="0.3484" stop-color="#3E306A"/>
<stop offset="0.4506" stop-color="#313270"/>
<stop offset="0.5818" stop-color="#293374"/>
<stop offset="0.8439" stop-color="#273375"/>
<stop offset="1" stop-color="#273375"/>
</linearGradient>
<linearGradient id="paint15_linear_99_1503" x1="108.642" y1="102.421" x2="108.354" y2="140.475" gradientUnits="userSpaceOnUse">
<stop stop-color="#CA2026"/>
<stop offset="0.0485883" stop-color="#AA2435"/>
<stop offset="0.1128" stop-color="#872846"/>
<stop offset="0.1836" stop-color="#692B55"/>
<stop offset="0.2612" stop-color="#512E61"/>
<stop offset="0.3484" stop-color="#3E306A"/>
<stop offset="0.4506" stop-color="#313270"/>
<stop offset="0.5818" stop-color="#293374"/>
<stop offset="0.8439" stop-color="#273375"/>
<stop offset="1" stop-color="#273375"/>
</linearGradient>
<linearGradient id="paint16_linear_99_1503" x1="61.6433" y1="55.9889" x2="61.6433" y2="92.7467" gradientUnits="userSpaceOnUse">
<stop stop-color="#CA2026"/>
<stop offset="0.0485883" stop-color="#AA2435"/>
<stop offset="0.1128" stop-color="#872846"/>
<stop offset="0.1836" stop-color="#692B55"/>
<stop offset="0.2612" stop-color="#512E61"/>
<stop offset="0.3484" stop-color="#3E306A"/>
<stop offset="0.4506" stop-color="#313270"/>
<stop offset="0.5818" stop-color="#293374"/>
<stop offset="0.8439" stop-color="#273375"/>
<stop offset="1" stop-color="#273375"/>
</linearGradient>
<linearGradient id="paint17_linear_99_1503" x1="91.1713" y1="63.0932" x2="85.0944" y2="164.814" gradientUnits="userSpaceOnUse">
<stop stop-color="#CA2026"/>
<stop offset="0.0485883" stop-color="#AA2435"/>
<stop offset="0.1128" stop-color="#872846"/>
<stop offset="0.1836" stop-color="#692B55"/>
<stop offset="0.2612" stop-color="#512E61"/>
<stop offset="0.3484" stop-color="#3E306A"/>
<stop offset="0.4506" stop-color="#313270"/>
<stop offset="0.5818" stop-color="#293374"/>
<stop offset="0.8439" stop-color="#273375"/>
<stop offset="1" stop-color="#273375"/>
</linearGradient>
<radialGradient id="paint18_radial_99_1503" cx="0" cy="0" r="1" gradientUnits="userSpaceOnUse" gradientTransform="translate(93.1717 191.322) rotate(-92.6518) scale(73.1569 73.1569)">
<stop stop-color="#273375"/>
<stop offset="0.0837989" stop-color="#273375"/>
<stop offset="0.0914469" stop-color="#2A3373"/>
<stop offset="0.36" stop-color="#9C253C"/>
<stop offset="0.4788" stop-color="#CA2026"/>
<stop offset="0.5525" stop-color="#B32331"/>
<stop offset="0.7075" stop-color="#772A4E"/>
<stop offset="0.8939" stop-color="#273375"/>
<stop offset="1" stop-color="#273375"/>
</radialGradient>
<radialGradient id="paint19_radial_99_1503" cx="0" cy="0" r="1" gradientUnits="userSpaceOnUse" gradientTransform="translate(93.4194 191.117) rotate(-92.6518) scale(73.1868 73.1867)">
<stop stop-color="#273375"/>
<stop offset="0.0837989" stop-color="#273375"/>
<stop offset="0.0914469" stop-color="#2A3373"/>
<stop offset="0.36" stop-color="#9C253C"/>
<stop offset="0.4788" stop-color="#CA2026"/>
<stop offset="0.5525" stop-color="#B32331"/>
<stop offset="0.7075" stop-color="#772A4E"/>
<stop offset="0.8939" stop-color="#273375"/>
<stop offset="1" stop-color="#273375"/>
</radialGradient>
<radialGradient id="paint20_radial_99_1503" cx="0" cy="0" r="1" gradientUnits="userSpaceOnUse" gradientTransform="translate(93.2187 191.161) rotate(-92.6518) scale(73.073 73.073)">
<stop stop-color="#273375"/>
<stop offset="0.0837989" stop-color="#273375"/>
<stop offset="0.0914469" stop-color="#2A3373"/>
<stop offset="0.36" stop-color="#9C253C"/>
<stop offset="0.4788" stop-color="#CA2026"/>
<stop offset="0.5525" stop-color="#B32331"/>
<stop offset="0.7075" stop-color="#772A4E"/>
<stop offset="0.8939" stop-color="#273375"/>
<stop offset="1" stop-color="#273375"/>
</radialGradient>
<radialGradient id="paint21_radial_99_1503" cx="0" cy="0" r="1" gradientUnits="userSpaceOnUse" gradientTransform="translate(93.3501 191.109) rotate(-92.6518) scale(73.1402 73.1403)">
<stop stop-color="#273375"/>
<stop offset="0.0837989" stop-color="#273375"/>
<stop offset="0.0914469" stop-color="#2A3373"/>
<stop offset="0.36" stop-color="#9C253C"/>
<stop offset="0.4788" stop-color="#CA2026"/>
<stop offset="0.5525" stop-color="#B32331"/>
<stop offset="0.7075" stop-color="#772A4E"/>
<stop offset="0.8939" stop-color="#273375"/>
<stop offset="1" stop-color="#273375"/>
</radialGradient>
<radialGradient id="paint22_radial_99_1503" cx="0" cy="0" r="1" gradientUnits="userSpaceOnUse" gradientTransform="translate(93.3158 191.14) rotate(-92.6518) scale(73.1789 73.1788)">
<stop stop-color="#273375"/>
<stop offset="0.0837989" stop-color="#273375"/>
<stop offset="0.0914469" stop-color="#2A3373"/>
<stop offset="0.36" stop-color="#9C253C"/>
<stop offset="0.4788" stop-color="#CA2026"/>
<stop offset="0.5525" stop-color="#B32331"/>
<stop offset="0.7075" stop-color="#772A4E"/>
<stop offset="0.8939" stop-color="#273375"/>
<stop offset="1" stop-color="#273375"/>
</radialGradient>
<radialGradient id="paint23_radial_99_1503" cx="0" cy="0" r="1" gradientUnits="userSpaceOnUse" gradientTransform="translate(93.3191 191.072) rotate(-92.6518) scale(72.9911 72.9912)">
<stop stop-color="#273375"/>
<stop offset="0.0837989" stop-color="#273375"/>
<stop offset="0.0914469" stop-color="#2A3373"/>
<stop offset="0.36" stop-color="#9C253C"/>
<stop offset="0.4788" stop-color="#CA2026"/>
<stop offset="0.5525" stop-color="#B32331"/>
<stop offset="0.7075" stop-color="#772A4E"/>
<stop offset="0.8939" stop-color="#273375"/>
<stop offset="1" stop-color="#273375"/>
</radialGradient>
<radialGradient id="paint24_radial_99_1503" cx="0" cy="0" r="1" gradientUnits="userSpaceOnUse" gradientTransform="translate(93.3487 191.1) rotate(-92.6518) scale(73.1153 73.1152)">
<stop stop-color="#273375"/>
<stop offset="0.0837989" stop-color="#273375"/>
<stop offset="0.0914469" stop-color="#2A3373"/>
<stop offset="0.36" stop-color="#9C253C"/>
<stop offset="0.4788" stop-color="#CA2026"/>
<stop offset="0.5525" stop-color="#B32331"/>
<stop offset="0.7075" stop-color="#772A4E"/>
<stop offset="0.8939" stop-color="#273375"/>
<stop offset="1" stop-color="#273375"/>
</radialGradient>
<radialGradient id="paint25_radial_99_1503" cx="0" cy="0" r="1" gradientUnits="userSpaceOnUse" gradientTransform="translate(93.2248 191.133) rotate(-92.6518) scale(73.1376 73.1375)">
<stop stop-color="#273375"/>
<stop offset="0.0837989" stop-color="#273375"/>
<stop offset="0.0914469" stop-color="#2A3373"/>
<stop offset="0.36" stop-color="#9C253C"/>
<stop offset="0.4788" stop-color="#CA2026"/>
<stop offset="0.5525" stop-color="#B32331"/>
<stop offset="0.7075" stop-color="#772A4E"/>
<stop offset="0.8939" stop-color="#273375"/>
<stop offset="1" stop-color="#273375"/>
</radialGradient>
<radialGradient id="paint26_radial_99_1503" cx="0" cy="0" r="1" gradientUnits="userSpaceOnUse" gradientTransform="translate(93.2939 191.166) rotate(-92.6518) scale(73.2118 73.2118)">
<stop stop-color="#273375"/>
<stop offset="0.0837989" stop-color="#273375"/>
<stop offset="0.0914469" stop-color="#2A3373"/>
<stop offset="0.36" stop-color="#9C253C"/>
<stop offset="0.4788" stop-color="#CA2026"/>
<stop offset="0.5525" stop-color="#B32331"/>
<stop offset="0.7075" stop-color="#772A4E"/>
<stop offset="0.8939" stop-color="#273375"/>
<stop offset="1" stop-color="#273375"/>
</radialGradient>
<radialGradient id="paint27_radial_99_1503" cx="0" cy="0" r="1" gradientUnits="userSpaceOnUse" gradientTransform="translate(93.4634 191.192) rotate(-92.6518) scale(73.1494 73.1494)">
<stop stop-color="#273375"/>
<stop offset="0.0837989" stop-color="#273375"/>
<stop offset="0.0914469" stop-color="#2A3373"/>
<stop offset="0.36" stop-color="#9C253C"/>
<stop offset="0.4788" stop-color="#CA2026"/>
<stop offset="0.5525" stop-color="#B32331"/>
<stop offset="0.7075" stop-color="#772A4E"/>
<stop offset="0.8939" stop-color="#273375"/>
<stop offset="1" stop-color="#273375"/>
</radialGradient>
<radialGradient id="paint28_radial_99_1503" cx="0" cy="0" r="1" gradientUnits="userSpaceOnUse" gradientTransform="translate(93.3215 191.231) rotate(-92.6518) scale(73.2561 73.256)">
<stop stop-color="#273375"/>
<stop offset="0.0837989" stop-color="#273375"/>
<stop offset="0.0914469" stop-color="#2A3373"/>
<stop offset="0.36" stop-color="#9C253C"/>
<stop offset="0.4788" stop-color="#CA2026"/>
<stop offset="0.5525" stop-color="#B32331"/>
<stop offset="0.7075" stop-color="#772A4E"/>
<stop offset="0.8939" stop-color="#273375"/>
<stop offset="1" stop-color="#273375"/>
</radialGradient>
<radialGradient id="paint29_radial_99_1503" cx="0" cy="0" r="1" gradientUnits="userSpaceOnUse" gradientTransform="translate(93.1267 191.186) rotate(-92.6518) scale(73.2712 73.2712)">
<stop stop-color="#273375"/>
<stop offset="0.0837989" stop-color="#273375"/>
<stop offset="0.0914469" stop-color="#2A3373"/>
<stop offset="0.36" stop-color="#9C253C"/>
<stop offset="0.4788" stop-color="#CA2026"/>
<stop offset="0.5525" stop-color="#B32331"/>
<stop offset="0.7075" stop-color="#772A4E"/>
<stop offset="0.8939" stop-color="#273375"/>
<stop offset="1" stop-color="#273375"/>
</radialGradient>
<radialGradient id="paint30_radial_99_1503" cx="0" cy="0" r="1" gradientUnits="userSpaceOnUse" gradientTransform="translate(93.4042 191.09) rotate(-92.6518) scale(73.0815 73.0815)">
<stop stop-color="#273375"/>
<stop offset="0.0837989" stop-color="#273375"/>
<stop offset="0.0914469" stop-color="#2A3373"/>
<stop offset="0.36" stop-color="#9C253C"/>
<stop offset="0.4788" stop-color="#CA2026"/>
<stop offset="0.5525" stop-color="#B32331"/>
<stop offset="0.7075" stop-color="#772A4E"/>
<stop offset="0.8939" stop-color="#273375"/>
<stop offset="1" stop-color="#273375"/>
</radialGradient>
<linearGradient id="paint31_linear_99_1503" x1="95.7266" y1="69.8778" x2="44.3373" y2="115.244" gradientUnits="userSpaceOnUse">
<stop stop-color="#CA2026"/>
<stop offset="0.0485883" stop-color="#AA2435"/>
<stop offset="0.1128" stop-color="#872846"/>
<stop offset="0.1836" stop-color="#692B55"/>
<stop offset="0.2612" stop-color="#512E61"/>
<stop offset="0.3484" stop-color="#3E306A"/>
<stop offset="0.4506" stop-color="#313270"/>
<stop offset="0.5818" stop-color="#293374"/>
<stop offset="0.8439" stop-color="#273375"/>
<stop offset="1" stop-color="#273375"/>
</linearGradient>
<linearGradient id="paint32_linear_99_1503" x1="113.246" y1="89.4151" x2="62.1889" y2="134.488" gradientUnits="userSpaceOnUse">
<stop stop-color="#CA2026"/>
<stop offset="0.0485883" stop-color="#AA2435"/>
<stop offset="0.1128" stop-color="#872846"/>
<stop offset="0.1836" stop-color="#692B55"/>
<stop offset="0.2612" stop-color="#512E61"/>
<stop offset="0.3484" stop-color="#3E306A"/>
<stop offset="0.4506" stop-color="#313270"/>
<stop offset="0.5818" stop-color="#293374"/>
<stop offset="0.8439" stop-color="#273375"/>
<stop offset="1" stop-color="#273375"/>
</linearGradient>
</defs>
</svg>
