<svg width="34" height="30" viewBox="0 0 34 30" fill="none" xmlns="http://www.w3.org/2000/svg">
<path d="M32.459 7.27148C32.0898 5.88281 31.0059 4.79297 29.6289 4.42383C27.1328 3.75 17.125 3.75 17.125 3.75C17.125 3.75 7.11719 3.75 4.62109 4.42383C3.24414 4.79297 2.16016 5.88281 1.79102 7.27148C1.12305 9.78516 1.12305 15.0234 1.12305 15.0234C1.12305 15.0234 1.12305 20.2617 1.79102 22.7754C2.16016 24.1641 3.24414 25.207 4.62109 25.5762C7.11719 26.25 17.125 26.25 17.125 26.25C17.125 26.25 27.1328 26.25 29.6289 25.5762C31.0059 25.207 32.0898 24.1582 32.459 22.7754C33.127 20.2617 33.127 15.0234 33.127 15.0234C33.127 15.0234 33.127 9.78516 32.459 7.27148ZM13.8555 19.7812V10.2656L22.2168 15.0234L13.8555 19.7812Z" fill="#184383"/>
</svg>
